<?xml version="1.0" encoding="iso-8859-1"?>
<!-- Generator: Adobe Illustrator 19.0.0, SVG Export Plug-In . SVG Version: 6.00 Build 0)  -->
<svg version="1.1" id="Layer_1" xmlns="http://www.w3.org/2000/svg" xmlns:xlink="http://www.w3.org/1999/xlink" x="0px" y="0px"
	 viewBox="0 0 481.28 481.28" style="enable-background:new 0 0 481.28 481.28;" xml:space="preserve">
<path style="fill:#EBF0F3;" d="M468.988,307.2l-43.369-24.696c3.012-13.252,4.819-27.106,4.819-41.562s-1.807-28.311-4.819-41.562
	l43.369-24.696c5.421-3.012,7.228-10.24,4.216-15.661l-43.972-76.499c-3.012-5.421-10.24-7.228-15.661-4.216l-43.369,24.696
	c-20.48-18.673-44.574-33.129-71.68-41.562V11.445C298.522,4.819,293.1,0,287.077,0h-87.944c-6.626,0-11.445,5.421-11.445,11.445
	V61.44c-27.106,8.433-51.802,22.889-71.68,41.562L72.639,78.306c-5.421-3.012-12.649-1.205-15.661,4.216l-44.574,75.896
	c-3.012,5.421-1.205,12.649,4.216,15.661l43.369,24.696c-3.012,13.252-4.819,27.106-4.819,41.562s1.807,28.311,4.819,41.562
	L6.38,312.621l49.995,86.137c3.012,5.421,10.24,7.228,15.661,4.216l43.369-24.696c20.48,18.673,44.574,33.129,71.68,41.562v49.995
	c0,6.626,5.421,11.445,11.445,11.445h87.944c6.626,0,11.445-5.421,11.445-11.445V419.84c27.106-8.433,51.802-22.889,71.68-41.562
	l43.369,24.696c5.421,3.012,12.649,1.205,15.661-4.216l43.972-76.499C476.818,317.44,475.011,310.814,468.988,307.2z
	 M243.105,378.88c-76.499,0-137.939-62.042-137.939-137.939s61.44-137.939,137.939-137.939s137.939,61.44,137.939,137.939
	C380.442,316.838,319.002,378.88,243.105,378.88z"/>
<path style="fill:#E1E6E9;" d="M243.105,103.002c-76.499,0-137.939,62.042-137.939,137.939s61.44,137.939,137.939,137.939
	s137.939-61.44,137.939-137.939C380.442,165.045,319.002,103.002,243.105,103.002z M243.105,358.4
	c-64.452,0-117.459-52.405-117.459-117.459s52.405-117.459,117.459-117.459s117.459,52.405,117.459,117.459
	S307.557,358.4,243.105,358.4z"/>
<circle style="fill:#EBF0F3;" cx="243.105" cy="240.941" r="65.054"/>
<g>
</g>
<g>
</g>
<g>
</g>
<g>
</g>
<g>
</g>
<g>
</g>
<g>
</g>
<g>
</g>
<g>
</g>
<g>
</g>
<g>
</g>
<g>
</g>
<g>
</g>
<g>
</g>
<g>
</g>
</svg>
