<svg xmlns="http://www.w3.org/2000/svg" viewBox="0 0 508 508"><circle cx="254" cy="254" r="254" fill="#90dfaa"/><path d="M305.2 245.6c0 34.4-23.2 45.6-51.2 45.6s-51.2-11.2-51.2-45.6S225.6 166 254 166s51.2 45.2 51.2 79.6z" fill="#f9b54c"/><path d="M307.6 238l-2.8 142-16.4 46.4-28.8 81.6h-12.8L218 428l-24-67.2V252.4l8.4-20 .4.4 2.8 2.8 31.6 32.8 5.6 5.6 10-5.6.4-.4 8.8-4.8 38.8-22 3.6-2 3.2-1.2z" fill="#e6e9ee"/><path fill="#f1543f" d="M236.4 268.4l-10.4 14 13.2 17.6h29.6l13.2-17.6-10.4-14z"/><path d="M295.6 470l-14.4 16.4-18.8 21.2h-17.2l-18.8-21.2L212 470l2-11.6 4.8-30.8 6.8-44 13.2-83.6h29.6l13.6 83.6 6.8 42.8 5.2 32 1.6 11.6z" fill="#ff7058"/><path d="M148.4 411.2c-3.6 2.8-7.2 30.8-11.2 68.4-.4 0-.8-.4-.8-.4-21.6-11.2-41.2-25.6-58.8-42.4 6.4-84 12.4-154 12.4-154v.4l58.4 128z" fill="#324a5e"/><path d="M252 508h-6.4c-2.8 0-5.2 0-8-.4-36-2.4-70-12-100-27.6-.4 0-.8-.4-.8-.4-15.2-100.4-44-189.6-46-196v-.4c74.8-16 113.2-63.6 117.2-69.2 0-.4.4-.4.4-.4 0 .4 0 .8-.4 1.2-1.2 5.2-2 12.4-2 21.2 0 8.4.4 18 1.6 28.8 0 2 .4 4 .4 6.4 3.2 33.2 10.4 74 17.6 112.4 12.4 65.2 26 123.2 26 123.2.4.4.4.8.4 1.2z" fill="#2b3b4e"/><path d="M252 508h-6.4c-2.8 0-5.2 0-8-.4-3.6-6.8-7.2-13.6-10.8-20.8-4.4-8.8-8.4-18.4-12.4-28-31.6-74.8-52.8-161.6-52.8-161.6 6.4.8 23.6-7.2 23.6-7.2l-23.6-27.6c25.2-6.4 42.8-40 46.8-47.6.4-.8.8-1.2.8-1.6 0 .4 0 .8-.4 1.2-1.2 5.2-2 12.4-2 21.2 0 8.4.4 18 1.6 28.8 0 2 .4 4 .4 6.4 3.2 33.2 10.4 74 17.6 112.4 12.4 65.2 26 123.2 26 123.2-.4.8-.4 1.2-.4 1.6z" fill="#acb3ba"/><path d="M430.4 436.8c-17.2 16.8-37.2 31.2-58.8 42.4-.4 0-.8.4-.8.4-3.6-38-7.6-65.6-11.2-68.4l58-128v-.4s6.4 70.4 12.8 154z" fill="#2b3b4e"/><path d="M417.6 282.8c0 .4 0 .4 0 0-2 6.8-30.8 96-46 196.4-.4 0-.8.4-.8.4-30.4 15.6-64.4 25.6-100 27.6-2.8 0-5.2.4-8 .4H256v-.8s13.6-58 26-123.2c7.2-38.4 14-79.6 17.6-112.4 0-2 .4-4 .4-6 .8-8.4 1.2-16.4 1.6-23.2.4-11.6-.4-20.8-2-27.2 0-.4 0-.8-.4-1.2l.4.4c3.6 4.4 42 52.8 118 68.8z" fill="#324a5e"/><path d="M346.8 297.2s-21.2 86.4-52.8 161.6c-4 9.6-8.4 18.8-12.4 28-3.6 7.2-7.2 14.4-10.8 20.8-2.8 0-5.2.4-8 .4H256v-.8s13.6-58 26-123.2c7.2-38.4 14-79.6 17.6-112.4 0-2 .4-4 .4-6 .8-8.4 1.2-16.4 1.6-23.2.4-11.6-.4-20.8-2-27.2 0-.4 0-.8-.4-1.2 0 0 .4.4.4 1.2 3.6 7.2 21.6 41.2 46.8 47.6L323.2 290s17.2 8 23.6 7.2z" fill="#ced5e0"/><path d="M299.2 213.2s11.2 25.2-45.2 54.8l25.6 38c0 .4 40.4-57.2 19.6-92.8zm-90.4 0S197.6 238.4 254 268l-25.6 38c0 .4-40.4-57.2-19.6-92.8z" fill="#fff"/><g fill="#ffd05b"><path d="M320.8 130.4c0 49.6-30 114.4-66.8 114.4s-66.8-64.8-66.8-114.4 30-65.2 66.8-65.2 66.8 15.6 66.8 65.2z"/><path d="M335.6 154.4c-4 9.2-11.6 14.8-16.8 12.8-5.2-2-6.4-10.8-2.4-20s11.6-14.8 16.8-12.8c5.6 1.6 6.4 10.8 2.4 20zm-163.2 0c4 9.2 11.6 14.8 16.8 12.8s6.4-10.8 2.4-20-11.6-14.8-16.8-12.8c-5.6 1.6-6.4 10.8-2.4 20z"/></g><path d="M253.6 82.8c19.6-10.8 65.2-26 65.2 72 0 0 44-112.4-23.2-114 0 0-47.2-48-108.4 22l9.6-4.8s-49.2 28.8-7.2 96.8c0 0-7.2-98.4 47.2-71.6 5.2 2.8 11.6 2.4 16.8-.4z" fill="#324a5e"/><g fill="none" stroke="#2c9984" stroke-width="1.549" stroke-miterlimit="10"><path d="M309.6 161.6h-40c-4.4 0-8-3.6-8-8v-14.8c0-4.4 3.6-8 8-8h40c4.4 0 8 3.6 8 8v14.8c0 4.4-3.6 8-8 8zm-71.2 0h-40c-4.4 0-8-3.6-8-8v-14.8c0-4.4 3.6-8 8-8h40c4.4 0 8 3.6 8 8v14.8c-.4 4.4-4 8-8 8z"/><path d="M246.4 143.2c0-4.4 3.6-7.6 7.6-7.6s7.6 3.6 7.6 7.6" stroke-linecap="round"/></g></svg>