<svg xmlns="http://www.w3.org/2000/svg" viewBox="0 0 491.52 491.52"><path d="M163.545 305.548l.389.441c4.071-2.903 7.324-5.913 9.84-8.739 5.492-6.16 8.381-14.212 8.381-22.465v-5.1c-23.726-30.128-39.09-76.403-39.09-128.658 0 0 2.048-34.817 38.23-38.23h32.91c8.328 0 16.621-1.116 24.627-3.414 8.473-2.432 18.616-6.458 26.431-12.97l61.44 20.48s19.115 12.971 21.845 34.133c0 52.314-15.398 98.631-39.168 128.757v5.002c0 8.253 2.889 16.305 8.381 22.465 2.517 2.824 5.769 5.836 9.829 8.738l.388-.44 2.916 3.469 35.572 19.209h2.299V71.252c0-3.302-.546-6.588-1.635-9.704-8.976-25.72-30.694-28.822-30.694-28.822 2.779-14.396-1.642-22.578-6.755-27.16C325.553 1.87 320.105 0 314.566 0h-93.831c-53.883 0-97.97 44.087-97.97 97.97v230.257h2.292l35.571-19.209 2.917-3.47z" fill="#64798a"/><path d="M317.76 297.25c-5.492-6.16-8.381-14.212-8.381-22.465v-5.002c-.781.991-1.49 2.116-2.29 3.071-17.122 20.444-38.283 32.695-61.284 32.695-23.035 0-44.226-12.288-61.361-32.789-.799-.955-1.509-2.083-2.29-3.075v5.1c0 8.253-2.889 16.305-8.381 22.465-2.517 2.826-5.77 5.837-9.84 8.739.397.448 1.183 1.344 2.581 3.041 4.21 5.118 12.671 16.187 22.875 33.439 17.502 6.784 36.473 10.595 56.373 10.595 19.897 0 38.868-3.812 56.368-10.595 10.207-17.255 18.669-28.325 22.879-33.441a104.628 104.628 0 0 1 2.579-3.039c-4.06-2.903-7.312-5.915-9.828-8.739z" fill="#f6c358"/><path d="M245.806 305.548c23 0 44.162-12.251 61.284-32.695.8-.954 1.509-2.08 2.29-3.071 23.77-30.126 39.168-76.443 39.168-128.757-2.73-21.162-21.845-34.133-21.845-34.133l-61.44-20.48c-7.814 6.512-17.958 10.538-26.431 12.97-8.006 2.298-16.299 3.414-24.627 3.414h-32.91c-36.181 3.413-38.23 38.23-38.23 38.23 0 52.256 15.364 98.53 39.09 128.658.781.992 1.491 2.12 2.29 3.075 17.135 20.501 38.325 32.789 61.361 32.789z" fill="#fcd462"/><path d="M203.027 367.661c14.866 29.833 30.992 70.744 42.733 123.842 11.772-53.232 27.95-94.219 42.846-124.071-13.723 3.492-28.021 5.537-42.844 5.537-14.756.001-29.056-1.871-42.735-5.308z" fill="#44c4a1"/><path d="M189.389 342.469c4.298 7.265 8.897 15.68 13.637 25.193a175.093 175.093 0 0 0 42.735 5.308c14.823 0 29.121-2.046 42.844-5.537 4.701-9.42 9.261-17.755 13.524-24.964-17.5 6.784-36.471 10.595-56.368 10.595-19.899 0-38.87-3.811-56.372-10.595z" fill="#31978c"/><path d="M168.783 400.807c-5.732-6.753-.791-17.108 8.064-16.903l6.494.151-38.877-41.821a10.267 10.267 0 0 1-.338-13.595l16.501-19.621-35.571 19.209-46.979 25.37s-35.333 22.084-35.333 56.68v81.243h203.011l.001-.004-76.973-90.709z" fill="#3a556a"/><path d="M203.027 367.661c-4.74-9.513-9.34-17.928-13.637-25.193-10.203-17.251-18.665-28.32-22.875-33.439a107.107 107.107 0 0 0-2.97-3.482l-2.917 3.469-16.501 19.621a10.267 10.267 0 0 0 .338 13.595l38.877 41.821-6.494-.151c-8.855-.205-13.797 10.15-8.064 16.903l76.975 90.707.003-.007c-11.744-53.1-27.869-94.01-42.735-123.844z" fill="#ebf0f3"/><path d="M413.442 353.597l-46.978-25.37-35.572-19.209 16.501 19.621a10.265 10.265 0 0 1-.339 13.595l-38.876 41.821 6.494-.151c8.855-.205 13.796 10.15 8.064 16.903l-76.981 90.713h203.018v-81.243c.002-34.597-35.331-56.68-35.331-56.68z" fill="#3a556a"/><path d="M314.673 383.904l-6.494.151 38.876-41.821a10.265 10.265 0 0 0 .339-13.595l-16.501-19.621-2.916-3.469-.388.44c-.395.446-1.181 1.34-2.579 3.039-4.21 5.116-12.672 16.186-22.879 33.441-4.263 7.208-8.823 15.544-13.524 24.964-14.897 29.852-31.075 70.84-42.846 124.071l-.003.01-.001.006 76.981-90.713c5.731-6.753.79-17.108-8.065-16.903z" fill="#ebf0f3"/></svg>