<svg xmlns="http://www.w3.org/2000/svg" viewBox="0 0 111.062 111.062"><g clip-rule="evenodd"><path d="M56.267 93.297c-30.868.618-34.319-35.798-33.202-53.786C25.149 5.979 55.581-7.469 68.006 4.046c13.208 0 19.396 16.403 20.889 35.143 1.986 24.941-7.206 53.599-32.628 54.108z" fill-rule="evenodd" fill="#a2400f"/><path d="M65.201 70.617c-.198.312-19.746.623-19.962.932-6.139 8.758-19.405 12.595-29.951 14.953-10.497 2.347-10.902 15.68-10.919 24.56h102.325c-.016-8.88-.211-22.165-10.919-24.56-10.709-2.394-24.751-6.728-30.574-15.885z" fill-rule="evenodd" fill="#ffdecc"/><path d="M65.784 51.913V77.03c-5.639 7.411-14.865 7.155-20.504 0V51.913c0-13.563 20.504-13.563 20.504 0z" fill-rule="evenodd" fill="#ffdecc"/><path d="M65.784 51.913v16.816c-3.88 3.035-7.619 4.735-10.252 4.735-2.633 0-6.373-1.7-10.252-4.735V51.913c0-13.563 20.504-13.563 20.504 0z" fill-rule="evenodd" fill="#f7c5aa"/><path d="M55.532 69.287c-6.675 0-20.775-10.494-25.135-25.524-4.401-15.176 3.888-36.944 25.135-36.944 21.246 0 29.536 21.767 25.135 36.944-4.361 15.03-18.461 25.524-25.135 25.524z" fill-rule="evenodd" fill="#ffdecc"/><path d="M47.491 54.156c3.402-3.293 6.055-.823 8.041-.823 1.986 0 4.639-2.47 8.04.823-1.827 8.684-13.657 8.951-16.081 0z" fill-rule="evenodd" fill="#ff386a"/><path d="M48.536 54.605c1.859-.476 11.329-.572 13.992-.104-2.199 4.049-12.132 3.815-13.992.104z" fill-rule="evenodd" fill="#fff"/><path d="M47.491 54.156c3.401-3.293 6.055-.823 8.041-.823 1.986 0 4.639-2.47 8.04.823-5.201 2.562-12.58 1.365-16.081 0z" fill-rule="evenodd" fill="#ff386a"/><ellipse transform="rotate(-113.24 29.09 41.327)" cx="29.091" cy="41.328" rx="7.317" ry="4.231" fill-rule="evenodd" fill="#ffdecc"/><ellipse transform="rotate(-66.758 82.567 41.33)" cx="82.563" cy="41.328" rx="7.316" ry="4.232" fill-rule="evenodd" fill="#ffdecc"/><path d="M82.695 43.492C90.763 8.908 66.412 3.026 52.204 3.026c-16.001 0-28.063 18.991-25.364 41.108 8.536-5.146 16.057-15.31 34.717-31.891-2.714 4.866-8.006 13.719-25.99 29.765 9.679 1.599 27.708-10.601 37.317-23.367 2.294 9.076 5.595 19.01 9.811 24.851z" fill-rule="evenodd" fill="#a2400f"/><path d="M33.648 80.635c-5.839 2.8-12.517 4.562-18.36 5.868-10.497 2.347-10.902 15.68-10.919 24.56h102.325c-.016-8.88-.211-22.165-10.919-24.56-5.737-1.282-12.429-3.123-18.303-5.962l-.014.022c-8.805 14.645-16.858 22.625-21.927 25.444-5.06-2.815-13.095-10.773-21.883-25.372z" fill-rule="evenodd" fill="#68c497"/><path d="M22.677 111.062a55.49 55.49 0 0 1 .732-7.387c-.906 2.879-1.549 5.289-2.001 7.387h1.269zm65.708 0a55.636 55.636 0 0 0-.731-7.387c.906 2.879 1.549 5.289 2.001 7.387h-1.27z" fill-rule="evenodd" fill="#3c8a64"/><path d="M31.791 81.4c4.768 9.775 14.619 23.092 23.739 27.47M79.27 81.4c-4.768 9.775-14.618 23.092-23.739 27.47" fill="none" stroke="#fff" stroke-width="1.2" stroke-miterlimit="22.926" stroke-dasharray="2.3998,3.5997"/></g></svg>