<?xml version="1.0" encoding="iso-8859-1"?><!DOCTYPE svg PUBLIC "-//W3C//DTD SVG 1.1//EN" "http://www.w3.org/Graphics/SVG/1.1/DTD/svg11.dtd"><svg width="2761" height="2709" viewBox="0 0 2761 2709" xmlns="http://www.w3.org/2000/svg" xmlns:xlink="http://www.w3.org/1999/xlink"><svg viewBox="-20 -20 551.6 551.6" width="551.6" height="551.6" id="svg--001-certificate" x="2208.02" y="1103.88"><path d="M437.002 74.613c-17.643 0-31.975-14.348-31.975-31.975 0-17.635 14.332-31.976 31.975-31.976 17.611 0 31.975 14.341 31.975 31.976 0 17.628-14.364 31.975-31.975 31.975z" fill="#e6e9ed"/><path d="M437.002 0H74.606C51.062 0 31.975 19.094 31.975 42.639v426.338h383.7V85.27h21.327c23.544 0 42.623-19.087 42.623-42.631C479.625 19.094 460.546 0 437.002 0zm0 63.95c-11.771 0-21.327-9.556-21.327-21.312 0-11.757 9.556-21.319 21.327-21.319 11.74 0 21.296 9.562 21.296 21.319s-9.556 21.312-21.296 21.312z" fill="#ffce54"/><path d="M117.244 0c-23.528 0-42.607 19.062-42.63 42.584 0 .016-.008.039-.008.055v383.7h298.446V0H117.244z" fill="#f5f7fa"/><path fill="#da4453" d="M373.052 511.6l-42.639-10.648-42.637 10.648v-91.584h85.276z"/><path d="M394.348 404.684c0 35.316-28.618 63.95-63.935 63.95-35.331 0-63.958-28.634-63.958-63.95s28.627-63.95 63.958-63.95c35.317 0 63.935 28.633 63.935 63.95z" fill="#ed5564"/><path d="M351.725 404.684c0 11.771-9.555 21.327-21.312 21.327-11.772 0-21.312-9.556-21.312-21.327 0-11.772 9.539-21.312 21.312-21.312 11.757 0 21.312 9.539 21.312 21.312z" fill="#f5f7fa"/><g fill="#656d78"><path d="M319.75 149.219H127.9c-5.886 0-10.656 4.778-10.656 10.656 0 5.894 4.77 10.663 10.656 10.663h191.85c5.886 0 10.647-4.77 10.647-10.663.001-5.878-4.761-10.656-10.647-10.656zM127.9 106.588h191.85c5.886 0 10.647-4.77 10.647-10.663 0-5.878-4.762-10.655-10.647-10.655H127.9c-5.886 0-10.656 4.777-10.656 10.655 0 5.894 4.77 10.663 10.656 10.663zM319.75 213.169H127.9c-5.886 0-10.656 4.77-10.656 10.656 0 5.894 4.77 10.663 10.656 10.663h191.85c5.886 0 10.647-4.77 10.647-10.663.001-5.886-4.761-10.656-10.647-10.656zM223.825 277.127H127.9c-5.886 0-10.656 4.762-10.656 10.648 0 5.901 4.77 10.663 10.656 10.663h95.925a10.651 10.651 0 0 0 10.656-10.663c0-5.886-4.77-10.648-10.656-10.648z"/></g><path d="M415.675 0h-42.623v42.639C373.052 19.094 392.131 0 415.675 0z" fill="#f5f7fa"/></svg><svg viewBox="-20 -20 551.88 551.88" width="551.88" height="551.88" id="svg--001-printer" x="2208.02" y="552"><g fill="#656d78"><path d="M437.227 319.927c-4.468 0-8.623-2.827-10.106-7.295-1.875-5.593 1.155-11.638 6.732-13.497l63.985-21.323c5.593-1.859 11.638 1.156 13.497 6.748 1.858 5.577-1.156 11.622-6.749 13.481l-63.985 21.323a10.511 10.511 0 0 1-3.374.563zM437.227 394.566c-4.468 0-8.623-2.827-10.106-7.295-1.875-5.576 1.155-11.622 6.732-13.481l63.985-21.323c5.593-1.874 11.638 1.156 13.497 6.733 1.858 5.592-1.156 11.638-6.749 13.497l-63.985 21.323a10.516 10.516 0 0 1-3.374.546zM437.227 245.273c-4.468 0-8.623-2.828-10.106-7.295-1.875-5.592 1.155-11.622 6.732-13.481l63.985-21.339c5.593-1.859 11.638 1.156 13.497 6.749 1.858 5.592-1.156 11.622-6.749 13.481l-63.985 21.339a10.543 10.543 0 0 1-3.374.546z"/></g><g fill="#434a54"><path d="M362.588 476.329v24.885c0 5.89 4.766 10.654 10.654 10.654h42.662c5.889 0 10.67-4.765 10.67-10.654v-24.885h-63.986zM42.662 501.213c0 5.89 4.772 10.67 10.662 10.67h42.654c5.889 0 10.669-4.78 10.669-10.67v-24.885H42.662v24.885z"/></g><path fill="#e6e9ed" d="M21.331 106.632h426.56v383.91H21.331z"/><path d="M106.647.001C47.746.001 0 47.74 0 106.632v42.662h469.221V.001H106.647z" fill="#656d78"/><path fill="#ccd1d9" d="M21.331 298.592h426.56v21.339H21.331z"/><path d="M8.888 63.986H469.22V42.647H21.331A106.004 106.004 0 0 0 8.888 63.986z" fill="#434a54"/><path d="M426.574 106.632c0 5.89-4.781 10.67-10.67 10.67s-10.67-4.78-10.67-10.67c0-5.889 4.781-10.653 10.67-10.653s10.67 4.764 10.67 10.653z" fill="#ffce54"/><path d="M383.912 106.632c0 5.89-4.781 10.67-10.67 10.67s-10.654-4.78-10.654-10.67c0-5.889 4.766-10.653 10.654-10.653s10.67 4.764 10.67 10.653z" fill="#ed5564"/><path d="M341.25 106.632c0 5.89-4.765 10.67-10.654 10.67s-10.67-4.78-10.67-10.67c0-5.889 4.781-10.653 10.67-10.653a10.647 10.647 0 0 1 10.654 10.653z" fill="#a0d468"/><g fill="#434a54"><path d="M201.922 170.618h63.986a10.647 10.647 0 0 0 10.653-10.653v-10.67H191.26v10.67c0 5.888 4.773 10.653 10.662 10.653zM266.61 319.927h-74.654v10.653c0 5.89 4.78 10.67 10.669 10.67h63.985c5.89 0 10.653-4.78 10.653-10.67v-10.653H266.61z"/></g></svg><svg viewBox="-20 -20 500 500" width="500" height="500" id="svg--002-diploma-3" x="1000" y="2208.02"><path fill="#edeef0" d="M82.997 0h294.005v390.028H82.997z"/><path opacity=".4" fill="#5b5b5f" d="M121.559 33.562h117.613v10H121.559zM121.559 75.006h216.882v10H121.559zM121.559 116.449h216.882v10H121.559zM121.559 157.894h216.882v10H121.559zM121.559 199.337h216.882v10H121.559zM121.559 240.781h216.882v10H121.559zM121.559 282.225h216.882v10H121.559zM121.559 323.669h216.882v10H121.559z"/><path fill="#c8523b" d="M334.04 460l-30.498-23.237L271.591 460v-81.329h62.449z"/><path d="M346.186 363.932c0 24.224-19.64 43.87-43.873 43.87-24.233 0-43.873-19.646-43.873-43.87 0-24.23 19.64-43.876 43.873-43.876 24.233.001 43.873 19.646 43.873 43.876z" fill="#e5c400"/><path d="M346.186 363.932c0-24.23-19.64-43.875-43.873-43.875V437.291l.726-.528L333.538 460v-65.26c7.819-7.922 12.648-18.801 12.648-30.808z" opacity=".3" fill="#5b5b5f"/></svg><svg viewBox="-20 -20 169 169" width="552" height="552" id="svg--002-printer-1" x="552" y="552.02"><g fill="#FFF"><path d="M10.5 105h22.9v13.5c0 2.3 1.8 4.1 4.1 4.1h54c2.3 0 4.1-1.8 4.1-4.1V105h22.9c2.3 0 4.1-1.8 4.1-4.1V28.1c0-2.3-1.8-4.1-4.1-4.1H95.6V10.5c0-2.3-1.8-4.1-4.1-4.1h-54c-2.3 0-4.1 1.8-4.1 4.1V24H10.5c-2.3 0-4.1 1.8-4.1 4.1v72.8c0 2.2 1.9 4.1 4.1 4.1zm76.9 9.4H41.6V80.6h45.8v33.8zM41.6 14.6h45.8V24H41.6v-9.4zm-27 17.6H114.4v64.6H95.6V80.6h7.3c2.3 0 4.1-1.8 4.1-4.1s-1.8-4.1-4.1-4.1H26.2c-2.3 0-4.1 1.8-4.1 4.1s1.8 4.1 4.1 4.1h7.3v16.2H14.6V32.2z"/><path d="M86.2 53.3h10.6c2.3 0 4.1-1.8 4.1-4.1s-1.8-4.1-4.1-4.1H86.2c-2.3 0-4.1 1.8-4.1 4.1s1.8 4.1 4.1 4.1z"/></g></svg><svg viewBox="-20 -20 99 99" width="99" height="99" id="svg--002-technology-1" x="1599" y="2208.02"><path d="M58.501 59.002h-58V15.929a4.927 4.927 0 0 1 4.927-4.927h48.146a4.927 4.927 0 0 1 4.927 4.927v43.073z" fill="#38454f"/><g fill="#546a79"><path d="M47.501 40.601a2.6 2.6 0 0 0-2.599-2.599H14.1a2.6 2.6 0 0 0-2.599 2.599v7.401h36v-7.401zM11.501 50.002h36v9h-36z"/></g><path d="M5.5 12.002a1 1 0 0 1-.195-1.981l50-10a1 1 0 0 1 .393 1.961l-50 10a.971.971 0 0 1-.198.02z" fill="#283238"/><path fill="none" stroke="#283238" stroke-width="2" stroke-linecap="round" stroke-miterlimit="10" d="M21.501 32.002h15"/><path d="M53.574 11.002H5.428a4.927 4.927 0 0 0-4.927 4.927v11.073h58V15.929a4.927 4.927 0 0 0-4.927-4.927z" fill="#546a79"/><path fill="#21c6f7" d="M5.501 15.002h20v8h-20z"/><circle cx="50.501" cy="19.002" r="3" fill="#61b872"/><path d="M31.501 18.002h-1a1 1 0 1 1 0-2h1a1 1 0 1 1 0 2zM31.501 22.002h-1a1 1 0 1 1 0-2h1a1 1 0 1 1 0 2zM36.501 18.002h-1a1 1 0 1 1 0-2h1a1 1 0 1 1 0 2zM36.501 22.002h-1a1 1 0 1 1 0-2h1a1 1 0 1 1 0 2z" fill="#cbd4d8"/><path d="M33.43 42.002h-7.858c-.592 0-1.071-.48-1.071-1.071v-2.929h10v2.929c0 .591-.48 1.071-1.071 1.071zM33.43 54.002h-7.858c-.592 0-1.071-.48-1.071-1.071v-2.929h10v2.929c0 .591-.48 1.071-1.071 1.071z" fill="#283238"/></svg><svg viewBox="-20 -20 99 99" width="99" height="99" id="svg--003-copy-machine" x="1500" y="2208.02"><path fill="none" stroke="#283238" stroke-width="2" stroke-linecap="round" stroke-miterlimit="10" d="M9 23l-8-3M9 35l-8-3"/><path fill="#cbd4d8" d="M19 12h30v14H19z"/><path fill="#546a79" d="M9 12h10v47H9z"/><path fill="#e7eced" d="M19 48h30v11H19z"/><path fill="#fff" d="M19 37h30v11H19z"/><path fill="#e7eced" d="M19 26h30v11H19z"/><path fill="none" stroke="#38454f" stroke-width="2" stroke-linecap="round" stroke-miterlimit="10" d="M24 4V1M35 4V1"/><path fill="#afb6bb" d="M49 24h10v35H49z"/><path fill="#546a79" d="M49 15h10v4H49z"/><path d="M38 41h-8a1 1 0 1 1 0-2h8a1 1 0 1 1 0 2zM38 52h-8a1 1 0 1 1 0-2h8a1 1 0 1 1 0 2z" fill="#afb6bb"/><path fill="none" stroke="#38454f" stroke-width="2" stroke-linecap="round" stroke-miterlimit="10" d="M24 1h11"/><path fill="#1a9172" d="M21 15h9v6h-9z"/><path d="M35 17h-1a1 1 0 1 1 0-2h1a1 1 0 1 1 0 2zM35 21h-1a1 1 0 1 1 0-2h1a1 1 0 1 1 0 2zM39 17h-1a1 1 0 1 1 0-2h1a1 1 0 1 1 0 2zM39 21h-1a1 1 0 1 1 0-2h1a1 1 0 1 1 0 2zM43 17h-1a1 1 0 1 1 0-2h1a1 1 0 1 1 0 2zM43 21h-1a1 1 0 1 1 0-2h1a1 1 0 1 1 0 2z" fill="#e7eced"/><path d="M36.678 30h-5.356c-.73 0-1.322-.592-1.322-1.322V26h8v2.678c0 .73-.592 1.322-1.322 1.322z" fill="#afb6bb"/><path fill="#546a79" d="M19 4h30v3H19zM19 9h30v3H19z"/><path fill="#38454f" d="M19 7v2h30V7z"/></svg><svg viewBox="-20 -20 500 500" width="500" height="500" id="svg--003-diploma-2" x="500" y="2208.02"><path d="M381.063 27.455c0-15.163 12.291-27.454 27.454-27.454l.001-.001H112.49C87.923 0 68.008 19.915 68.008 44.482v299.266c0 24.567 19.915 44.482 44.482 44.482h224.091c24.567 0 44.482-19.915 44.482-44.482V27.455z" fill="#d8d9dd"/><path d="M408.518.001c-15.163 0-27.454 12.292-27.454 27.454v48.041h54.909V27.455C435.971 12.292 423.68.001 408.518.001z" fill="#808083"/><path d="M345.53 58.002c0-12.284 9.958-22.243 22.242-22.243v-.001H139.254c-19.903 0-36.038 16.135-36.038 36.038v243.547c0 19.903 16.135 36.038 36.038 36.038h170.237c19.903 0 36.038-16.135 36.038-36.038V58.002h.001z" fill="#edeef0"/><path d="M310.738 349.7c0-17.862 11.498-33.005 27.482-38.529H62.557c-21.279 0-38.529 17.25-38.529 38.529 0 21.279 17.25 38.529 38.529 38.529H338.22c-15.984-5.524-27.482-20.666-27.482-38.529z" fill="#808083"/><path fill="#abcb57" d="M130.749 89.015h187.249v20H130.749zM130.749 160.524h187.249v20H130.749zM130.749 232.033h187.249v20H130.749z"/><path fill="#c8523b" d="M263.747 460l-30.342-23.118L201.617 460v-80.914h62.13z"/><path d="M275.832 364.423c0 24.1-19.54 43.646-43.649 43.646s-43.649-19.546-43.649-43.646c0-24.106 19.54-43.652 43.649-43.652s43.649 19.546 43.649 43.652z" fill="#e5c400"/><path d="M275.832 364.423c0-24.106-19.54-43.651-43.649-43.651v116.636l.722-.525L263.249 460v-64.926c7.778-7.883 12.583-18.705 12.583-30.651z" opacity=".3" fill="#5b5b5f"/></svg><svg viewBox="-20 -20 500 500" width="500" height="500" id="svg--004-diploma-1" y="2208.02"><path fill="#d8d9dd" d="M0 50.176h460v339.352H0z"/><path d="M419.718 314.547v-189.39c-19.164 0-34.699-15.535-34.699-34.699H74.981c0 19.164-15.535 34.699-34.699 34.699v189.39c19.164 0 34.699 15.535 34.699 34.699h310.038c0-19.163 15.535-34.699 34.699-34.699z" fill="#edeef0"/><path fill="#c8523b" d="M341.727 409.824l-30.499-23.237-31.951 23.237v-81.329h62.45z"/><path d="M353.873 313.756c0 24.224-19.64 43.87-43.873 43.87s-43.873-19.646-43.873-43.87c0-24.23 19.64-43.876 43.873-43.876s43.873 19.646 43.873 43.876z" fill="#e5c400"/><path d="M353.873 313.756c0-24.23-19.64-43.876-43.873-43.876V387.114l.726-.528 30.498 23.237v-65.26c7.819-7.921 12.649-18.8 12.649-30.807z" opacity=".3" fill="#5b5b5f"/><path opacity=".4" fill="#5b5b5f" d="M170 151.324h120v10H170zM117.03 194.852h225.94v10H117.03zM117.03 238.381h225.94v10H117.03z"/></svg><svg viewBox="-20 -20 98.98 98.98" width="98.98" height="98.98" id="svg--004-notepad" x="1698" y="2208.02"><path fill="#545e73" d="M34.856 2h-4v3h-9V2h-19v56h47V2z"/><path fill="#404656" d="M21.856 0h9v5h-9z"/><path fill="#efebde" d="M37.856 5v3h-23V5h-9v50h41V5z"/><path fill="#8697cb" d="M30.856 2v3h-9V2h-7v6h23V2z"/><path d="M24.856 16h-13a1 1 0 1 1 0-2h13a1 1 0 1 1 0 2zM24.856 47h-13a1 1 0 1 1 0-2h13a1 1 0 1 1 0 2zM40.856 22h-29a1 1 0 1 1 0-2h29a1 1 0 1 1 0 2zM40.856 34h-29a1 1 0 1 1 0-2h29a1 1 0 1 1 0 2zM40.856 41h-29a1 1 0 1 1 0-2h29a1 1 0 1 1 0 2zM25.856 28h-14a1 1 0 1 1 0-2h14a1 1 0 1 1 0 2zM40.856 28h-7a1 1 0 1 1 0-2h7a1 1 0 1 1 0 2zM29.856 28a.99.99 0 0 1-.71-.29c-.181-.19-.29-.45-.29-.71 0-.271.1-.521.29-.71.38-.38 1.04-.37 1.42 0a.99.99 0 0 1 .29.71c0 .27-.11.52-.29.71-.191.18-.441.29-.71.29z" fill="#d5d0bb"/><path fill="#eddcc7" d="M34.692 49.489l-.008.007-1.988 7.29 4.647-4.647z"/><path d="M53.942 35.54l-1.247-1.247a1.985 1.985 0 0 0-2.807 0l-3.582 3.582 2.651 2.651 4.985-4.986z" fill="#d75a4a"/><path fill="#f29c21" d="M46.306 37.874l2.65 2.651L37.344 52.14l-2.65-2.651z"/><path fill="#d6c4b1" d="M40.341 55.153l.008-.008-3.006-3.006-4.647 4.647-.133.488z"/><path d="M51.962 43.532l3.582-3.582a1.985 1.985 0 0 0 0-2.807l-1.602-1.602-4.985 4.985 3.005 3.006z" fill="#a34740"/><path fill="#e18c25" d="M40.348 55.146l-3.006-3.006 11.613-11.613 3.006 3.006z"/><path d="M31.856 58.981a.999.999 0 0 1-.707-1.707l2.207-2.207a.999.999 0 1 1 1.414 1.414l-2.207 2.207a.993.993 0 0 1-.707.293z" fill="#5e5e5e"/></svg><svg viewBox="-20 -20 98 98" width="98" height="98" id="svg--005-calendar" x="1796.98" y="2208.02"><path fill="#f05565" d="M46.5 4v4h-7V4h-24v4h-7V4h-8v11h54V4z"/><path fill="#efebde" d="M8.5 15h-8v43h54V15h-39z"/><path d="M37.5 22h-29v29h38V22h-9zm-9 2h7v7h-7v-7zm7 16h-7v-7h7v7zm-16-7h7v7h-7v-7zm0-9h7v7h-7v-7zm-9 0h7v7h-7v-7zm0 9h7v7h-7v-7zm7 16h-7v-7h7v7zm9 0h-7v-7h7v7zm9 0h-7v-7h7v7zm9 0h-7v-7h7v7zm0-9h-7v-7h7v7zm-7-9v-7h7v7h-7z" fill="#d5d0bb"/><path fill="#36495e" d="M8.5 0h7v8h-7zM39.5 0h7v8h-7z"/><path fill="#7f6e5d" d="M19.5 33h7v7h-7z"/><circle cx="46.5" cy="47" r="11" fill="#76c9b0"/><path d="M52.5 46h-5v-5a1 1 0 1 0-2 0v6a1 1 0 0 0 1 1h6a1 1 0 1 0 0-2z" fill="#fff"/></svg><svg viewBox="-20 -20 552 552" width="552" height="552" id="svg--005-diploma" x="1656.02" y="552"><path d="M0 30.897V419.31h370.759v-34.842c10.646 5.305 22.607 8.36 35.31 8.36s24.664-3.054 35.31-8.36v34.842H512V30.897H0z" fill="#724530"/><path d="M485.517 313.379c0-43.882-35.566-79.448-79.448-79.448s-79.448 35.566-79.448 79.448 35.566 79.448 79.448 79.448 79.448-35.566 79.448-79.448" fill="#d3b434"/><g fill="#f8e7a1"><path d="M406.069 366.345a8.82 8.82 0 0 1-8.828-8.828 8.82 8.82 0 0 1 8.828-8.828c19.474 0 35.31-15.837 35.31-35.31a8.82 8.82 0 0 1 8.828-8.828 8.82 8.82 0 0 1 8.828 8.828c-.001 29.211-23.756 52.966-52.966 52.966M361.931 322.207a8.82 8.82 0 0 1-8.828-8.828c0-29.21 23.755-52.966 52.966-52.966a8.82 8.82 0 0 1 8.828 8.828 8.82 8.82 0 0 1-8.828 8.828c-19.474 0-35.31 15.837-35.31 35.31a8.82 8.82 0 0 1-8.828 8.828"/></g><path d="M326.621 313.379c0-43.882 35.566-79.448 79.448-79.448 30.791 0 57.432 17.549 70.621 43.158V101.517c-19.5 0-35.31-15.81-35.31-35.31H70.621c0 19.5-15.81 35.31-35.31 35.31V348.69c19.5 0 35.31 15.81 35.31 35.31h299.158c-25.609-13.188-43.158-39.83-43.158-70.621" fill="#ece8d8"/><path d="M406.069 392.828c-12.703 0-24.664-3.054-35.31-8.36v96.636l35.31-35.31 35.31 35.31v-96.636c-10.646 5.305-22.607 8.36-35.31 8.36" fill="#f0ce49"/><g fill="#c9b693"><path d="M308.966 128H203.034a8.82 8.82 0 0 1-8.828-8.828 8.82 8.82 0 0 1 8.828-8.828h105.931a8.82 8.82 0 0 1 8.828 8.828 8.82 8.82 0 0 1-8.827 8.828M397.241 172.138H114.759a8.82 8.82 0 0 1-8.828-8.828 8.82 8.82 0 0 1 8.828-8.828h282.483a8.82 8.82 0 0 1 8.828 8.828 8.821 8.821 0 0 1-8.829 8.828M397.241 216.276H114.759c-4.882 0-8.828-3.946-8.828-8.828s3.946-8.828 8.828-8.828h282.483c4.882 0 8.828 3.946 8.828 8.828s-3.947 8.828-8.829 8.828M291.31 260.414H167.724c-4.882 0-8.828-3.946-8.828-8.828s3.946-8.828 8.828-8.828H291.31c4.882 0 8.828 3.946 8.828 8.828s-3.946 8.828-8.828 8.828M132.414 260.414h-17.655c-4.882 0-8.828-3.946-8.828-8.828s3.946-8.828 8.828-8.828h17.655c4.882 0 8.828 3.946 8.828 8.828s-3.947 8.828-8.828 8.828M185.379 304.552h-70.621a8.82 8.82 0 0 1-8.828-8.828 8.82 8.82 0 0 1 8.828-8.828h70.621a8.82 8.82 0 0 1 8.828 8.828 8.82 8.82 0 0 1-8.828 8.828M291.31 304.552h-70.62a8.82 8.82 0 0 1-8.828-8.828 8.82 8.82 0 0 1 8.828-8.828h70.621a8.82 8.82 0 0 1 8.828 8.828 8.821 8.821 0 0 1-8.829 8.828"/></g></svg><svg viewBox="-20 -20 548 548" width="548" height="548" id="svg--006-badge" x="2208.02" y="1655.48"><path fill="#ffd15c" d="M417.4 245.5l49.3-37.4-49.3-37.5 28.3-55.1-60.7-12.2 1.6-62-59.9 15.3L301.3 0 254 40 206.7 0l-25.4 56.6-59.9-15.4 1.6 62.1-60.7 12.2 28.3 55.1-49.3 37.5 49.3 37.4-28.3 55.2 60.7 12.2-1.6 62 59.9-15.3 25.4 56.6 47.3-40 47.3 40 25.4-56.6 59.9 15.3-1.6-62 60.7-12.2z"/><g fill="#ff7058"><path d="M181.3 359.6l-59.9 15.3 1.4-56.1-11.8 21-64.7 114.5 73.9-20.5 20.5 74.2 52.9-93.5 6.8-12.2zM396.9 336.1l-11.8-21 1.5 59.8-59.9-15.3-18.3 40.7 6.9 12.2 54 95.5 20.5-74.2 73.9 20.5z"/></g><g fill="#f1543f"><path d="M200.4 402.3l-6.8 12.2-18.7-41.6-65.2 16.7 1.3-49.8 11.8-21-1.4 56.1 59.9-15.3zM398.3 389.6l-65.2-16.7-17.8 39.6-6.9-12.2 18.3-40.7 59.9 15.3-1.5-59.8 11.8 21z"/></g><ellipse cx="254" cy="208.1" rx="132.1" ry="132.5" fill="#f8b64c"/><path fill="#f2f2f2" d="M222.5 276.3l-49.9-50 23.1-23.2 26.8 26.9 89.8-90.2 23.1 23.2z"/></svg><svg viewBox="-20 -20 552 552" width="552" height="552" id="svg--006-machine" y="1656.02"><path d="M0 151.462v282.767c0 16.276 13.194 29.47 29.47 29.47h453.059c16.276 0 29.47-13.194 29.47-29.47V77.769c0-16.276-13.194-29.47-29.47-29.47H29.47C13.194 48.298 0 61.493 0 77.769v41.654" fill="#4ebfed"/><path fill="#cfdce5" d="M41.667 100.167h428.662v92.268H41.667z"/><path d="M476.74 198.844H35.259V93.759H476.74v105.085zM48.074 186.028h415.85v-79.453H48.074v79.453z" fill="#3ba4bc"/><g fill="#cfdce5"><path d="M41.667 240.487h57.572v39.728H41.667zM41.667 314.498h57.572v39.728H41.667zM41.667 388.509h57.572v39.728H41.667zM227.211 240.487h57.572v39.728h-57.572zM227.211 314.498h57.572v39.728h-57.572zM227.211 388.509h57.572v39.728h-57.572zM412.757 240.487h57.572v39.728h-57.572zM412.757 314.498h57.572v39.728h-57.572zM412.757 388.509h57.572v39.728h-57.572zM134.437 240.487h57.572v39.728h-57.572zM134.437 314.498h57.572v39.728h-57.572zM134.437 388.509h57.572v39.728h-57.572zM319.984 240.487h57.572v39.728h-57.572zM319.984 314.498h57.572v39.728h-57.572zM319.984 388.509h57.572v39.728h-57.572z"/></g><g fill="#3ba4bc"><path d="M105.647 286.628H35.259v-52.543h70.388v52.543zm-57.573-12.816H92.83V246.9H48.074v26.912zM105.647 360.635H35.259v-52.543h70.388v52.543zm-57.573-12.816H92.83v-26.912H48.074v26.912zM105.647 434.642H35.259v-52.543h70.388v52.543zm-57.573-12.816H92.83v-26.912H48.074v26.912zM291.193 286.628h-70.387v-52.543h70.387v52.543zm-57.571-12.816h44.755V246.9h-44.755v26.912zM291.193 360.635h-70.387v-52.543h70.387v52.543zm-57.571-12.816h44.755v-26.912h-44.755v26.912zM291.193 434.642h-70.387v-52.543h70.387v52.543zm-57.571-12.816h44.755v-26.912h-44.755v26.912zM476.74 286.628h-70.387v-52.543h70.387v52.543zm-57.571-12.816h44.755V246.9h-44.755v26.912zM476.74 360.635h-70.387v-52.543h70.387v52.543zm-57.571-12.816h44.755v-26.912h-44.755v26.912zM476.74 434.642h-70.387v-52.543h70.387v52.543zm-57.571-12.816h44.755v-26.912h-44.755v26.912zM198.42 286.628h-70.387v-52.543h70.387v52.543zm-57.571-12.816h44.755V246.9h-44.755v26.912zM198.42 360.635h-70.387v-52.543h70.387v52.543zm-57.571-12.816h44.755v-26.912h-44.755v26.912zM198.42 434.642h-70.387v-52.543h70.387v52.543zm-57.571-12.816h44.755v-26.912h-44.755v26.912zM383.967 286.628H313.58v-52.543h70.387v52.543zm-57.571-12.816h44.755V246.9h-44.755v26.912zM383.967 360.635H313.58v-52.543h70.387v52.543zm-57.571-12.816h44.755v-26.912h-44.755v26.912zM383.967 434.642H313.58v-52.543h70.387v52.543zm-57.571-12.816h44.755v-26.912h-44.755v26.912z"/></g><path fill="#bac6cc" d="M403.914 158.479h48.697v15.379h-48.697z"/></svg><svg viewBox="-20 -20 552.02 552.02" width="552.02" height="552.02" id="svg--007-square"><path d="M481.178 378.613a9.353 9.353 0 0 1-8.469-5.377l-13.053-27.79a9.352 9.352 0 0 1 16.927-7.951l13.053 27.79a9.352 9.352 0 0 1-8.458 13.328z" fill="#cfdce5"/><path fill="#8de0a8" d="M235.416 316.755l228.347-107.248L511.995 312.2 283.648 419.448z"/><path fill="#4ebfed" d="M443.723 218.913l-208.328 97.856-48.235-102.705 208.327-97.843 44.633 95.013z"/><path fill="#ff6f52" d="M138.94 111.352l181.712-85.345L368.884 128.7l-181.712 85.345z"/><path d="M235.627 383.34a9.352 9.352 0 0 1-8.469-5.377L61.124 24.487H9.35a9.35 9.35 0 1 1 0-18.701h57.713a9.351 9.351 0 0 1 8.464 5.376l168.557 358.85a9.352 9.352 0 0 1-8.457 13.328z" fill="#cfdce5"/><path fill="#3ba4bc" d="M443.723 218.913l-208.328 97.856-38.835-87.707 243.56-17.828z"/><path d="M327.967 416.656a9.352 9.352 0 0 1-3.981-17.816l169.156-79.454a9.352 9.352 0 0 1 7.951 16.927l-169.156 79.454a9.314 9.314 0 0 1-3.97.889z" fill="#cfdce5"/><path fill="#e25749" d="M368.882 128.713L187.16 214.064l-30.907-65.803 208.69-27.951z"/><circle cx="265.129" cy="436.82" r="69.415" fill="#415e72"/><circle cx="265.129" cy="436.82" r="29.587" fill="#cfdce5"/></svg><svg viewBox="-20 -20 552 552" width="552" height="552" id="svg--007-title" x="1104" y="1656.02"><g fill="#ff6f52"><path d="M246.427 368.462l-8.332 29.902L206.409 512l-41.861-46.649-59.945 18.261 34.115-122.356 7.358-26.369 58.303 6.219zM407.404 483.612l-59.957-18.261L305.598 512 273.9 398.364l-8.332-29.89 42.049-27.368 58.314-6.219 7.358 26.369z"/></g><g fill="#e25749"><path d="M204.379 341.106l42.049 27.356-8.332 29.902c-11.513-7.417-22.145-19.258-33.716-23.013-17.908-5.821-44.055 4.19-58.96-6.666-2.711-1.983-4.894-4.506-6.701-7.429l7.358-26.37 58.302 6.22zM373.289 361.256c-1.807 2.922-3.99 5.445-6.701 7.429-14.916 10.855-41.063.845-58.971 6.666-11.571 3.755-22.204 15.597-33.716 23.013l-8.332-29.891 42.049-27.367 58.314-6.22 7.357 26.37z"/></g><path d="M422.986 188.116c0-19.154 17.581-40.861 11.97-58.144-5.816-17.912-32.993-25.097-43.844-40.005-10.959-15.059-9.468-43.087-24.527-54.047-14.909-10.851-41.052-.845-58.964-6.661C290.336 23.647 275.154 0 256 0s-34.336 23.647-51.618 29.259c-17.912 5.816-44.055-4.19-58.965 6.661-15.059 10.959-13.569 38.988-24.527 54.047-10.851 14.909-38.028 22.093-43.844 40.004-5.612 17.283 11.969 38.991 11.969 58.145s-17.581 40.861-11.97 58.144c5.816 17.912 32.993 25.097 43.844 40.005 10.959 15.059 9.469 43.087 24.527 54.047 14.909 10.851 41.052.845 58.964 6.661 17.283 5.612 32.465 29.259 51.619 29.259s34.336-23.647 51.618-29.259c17.912-5.816 44.055 4.19 58.965-6.661 15.059-10.959 13.569-38.988 24.527-54.047 10.851-14.909 38.028-22.093 43.844-40.004 5.614-17.283-11.967-38.992-11.967-58.145z" fill="#fcd577"/><circle cx="256" cy="188.11" r="118.482" fill="#dce8ef"/><g fill="#415e72"><path d="M213.2 133.375h85.593v17.603H213.2zM213.2 225.253h85.593v17.603H213.2zM188.826 179.308h134.337v17.603H188.826z"/></g></svg><svg viewBox="-20 -20 552 552" width="552" height="552" id="svg--008-pin" x="1656" y="1656.02"><path fill="#4ebfed" d="M512 464.355H0l65.344-115.201 21.785-38.416h337.742z"/><path d="M256 403.009s-112.716 2.804-190.656-53.855l21.786-38.416h168.415l.455 92.271z" fill="#42b7db"/><path d="M398.347 164.81c-31.256-156.22-253.432-156.22-284.688 0a207.314 207.314 0 0 0-4.015 40.706c0 93.1 61.655 171.79 146.358 197.494 84.704-25.704 146.358-104.394 146.358-197.494 0-13.936-1.381-27.547-4.013-40.706z" fill="#ff6f52"/><circle cx="256.008" cy="188.07" r="76.992" fill="#cfdce5"/><path d="M203.216 188.071c0-38.402 28.117-70.233 64.887-76.038a77.601 77.601 0 0 0-12.1-.949c-42.519 0-76.987 34.468-76.987 76.987s34.468 76.987 76.987 76.987a77.47 77.47 0 0 0 12.1-.949c-36.77-5.805-64.887-37.636-64.887-76.038z" fill="#bac6cc"/></svg><svg viewBox="-20 -20 552 552" width="552" height="552" id="svg--008-savings" x="2208.02"><path d="M495.96 288.227V395.63h-49.846c-6.684 21.318-16.904 41.055-29.983 58.548V512h-84.794v-40.817l-1.705.64a200.91 200.91 0 0 1-70.386 12.728c-24.44 0-48.88-4.452-72.066-13.367V512h-84.794v-57.821a195.728 195.728 0 0 1-21.192-35.663l-9.718-25.932c-5.655-13.668-8.201-28.114-8.979-41.72-1.756-31.099 5.894-61.997 21.13-89.158 4.865-8.69 10.559-18.032 16.352-25.832 25.393-34.234 59.426-58.699 96.995-72.342 57.583-20.941 123.504-16.452 179.445 17.267 2.533 1.53 4.314 2.684 5.179 3.373 9.555-13.969 25.644-23.136 43.852-23.136h10.458v91.528a194.231 194.231 0 0 1 13.004 35.663h47.048z" fill="#f9a395"/><path d="M331.339 471.183l-1.705.64a200.91 200.91 0 0 1-70.386 12.728c-24.44 0-48.88-4.452-72.066-13.367V512h-84.794v-57.821a195.728 195.728 0 0 1-21.192-35.663l-9.718-25.932c-5.655-13.668-8.201-28.114-8.978-41.72-1.756-31.099 5.894-61.997 21.13-89.158 4.865-8.69 10.559-18.032 16.352-25.832 25.393-34.234 59.426-58.699 96.995-72.342 0 0-99.975 101.284-81.421 183.332 28.212 124.77 125.596 124.319 215.783 124.319z" fill="#e59188"/><path d="M214.71 199.16l-5.955-17.843a191.09 191.09 0 0 1 22.947-6.097c28.253-5.647 57.817-4.725 85.496 2.666l-4.853 18.173c-24.907-6.651-51.517-7.479-76.956-2.394a172.202 172.202 0 0 0-20.679 5.495z" fill="#344f5e"/><path d="M57.983 331.544c-11.174 0-20.807-2.913-27.877-8.434-9.333-7.287-14.066-18.486-14.066-33.284a9.405 9.405 0 0 1 18.81 0c0 8.832 2.235 14.87 6.832 18.46 7.938 6.195 22.252 4.458 26.64 3.361a9.402 9.402 0 0 1 11.405 6.843c1.26 5.04-1.803 10.146-6.843 11.405-.66.165-6.672 1.613-14.589 1.65l-.312-.001z" fill="#e59188"/><path d="M407.961 287.336a17.79 17.79 0 0 1-1.856 7.95 17.96 17.96 0 0 1-16.151 10.069c-9.944 0-18.007-8.063-18.007-18.02 0-9.568 7.461-17.393 16.891-17.97.376-.025.74-.038 1.116-.038 9.944.002 18.007 8.065 18.007 18.009z" fill="#344f5e"/><path d="M407.961 287.336a17.79 17.79 0 0 1-1.856 7.95c-.364.025-.74.038-1.104.038-9.944 0-18.007-8.063-18.007-18.02 0-2.847.665-5.543 1.843-7.938.376-.025.74-.038 1.116-.038 9.945.001 18.008 8.064 18.008 18.008z" fill="#415e72"/><path d="M319.701 61.194c0 33.807-27.399 61.194-61.194 61.194-12.176 0-23.525-3.549-33.055-9.681-16.929-10.885-28.139-29.882-28.139-51.514C197.312 27.399 224.712 0 258.507 0a61.005 61.005 0 0 1 35.4 11.261c15.612 11.097 25.794 29.33 25.794 49.933z" fill="#fcd577"/><path d="M293.907 61.194c0 19.557-15.85 35.4-35.4 35.4a35.225 35.225 0 0 1-19.122-5.6c-9.794-6.296-16.278-17.286-16.278-29.8 0-19.55 15.85-35.4 35.4-35.4a35.289 35.289 0 0 1 20.479 6.514c9.031 6.42 14.921 16.968 14.921 28.886z" fill="#eac36e"/><path d="M319.706 61.193c0 33.807-27.399 61.194-61.194 61.194-12.176 0-23.525-3.549-33.055-9.681l14.433-21.393 39.576-58.649 14.446-21.405c15.612 11.098 25.794 29.331 25.794 49.934z" fill="#fcecc8"/><path d="M293.912 61.193c0 19.562-15.85 35.4-35.4 35.4a35.252 35.252 0 0 1-18.622-5.279l39.576-58.649c8.765 6.445 14.446 16.828 14.446 28.528z" fill="#fcd577"/></svg><svg viewBox="-20 -20 552 552" width="552" height="552" id="svg--009-technology" x="552" y="1656.02"><path fill="#ff6f52" d="M0 24.45h145.925v463.102H0z"/><path fill="#4ebfed" d="M183.032 252.535h145.925v235.004H183.032z"/><path fill="#fcd577" d="M366.076 174.995h145.925v312.556H366.076z"/></svg><svg viewBox="-20 -20 552 552" width="552" height="552" id="svg--010-hand-phones" x="1656.02" y="1104"><path d="M498.891 479.937l-63.103 25.986a80.62 80.62 0 0 1-71.598-5.07l-10.048-5.915C225.716 419.399 92.583 286.29 17.044 157.863l-5.915-10.057a80.615 80.615 0 0 1-5.056-71.57l25.994-63.122 21.63-10.25C66.988-3.433 82.886.969 91.043 13.205l64.043 96.055a29.636 29.636 0 0 1-.502 33.608l-19.342 27.213-21.029 29.561c20.38 35.915 51.96 75.261 87.41 110.712 35.451 35.474 74.821 67.053 110.736 87.434l29.562-21.03 27.216-19.343a29.633 29.633 0 0 1 33.604-.503L498.8 420.94c12.237 8.156 16.641 24.053 10.347 37.344l-10.256 21.653z" fill="#cfdce5"/><g fill="#bac6cc"><path d="M334.646 412.209l29.562-21.03 27.216-19.343a29.638 29.638 0 0 1 29.572-2.757l-18.252-12.166a29.637 29.637 0 0 0-33.604.503l-27.216 19.343-29.562 21.03a340.29 340.29 0 0 1-6.66-3.885c9.796 6.782 19.491 12.941 28.944 18.305zM39.329 172.282l-5.915-10.057a80.623 80.623 0 0 1-5.055-71.571l25.994-63.122 21.63-10.25a29.51 29.51 0 0 1 16.013-2.651l-.952-1.428C82.887.969 66.989-3.434 53.698 2.864l-21.63 10.25L6.074 76.236a80.62 80.62 0 0 0 5.055 71.571l5.915 10.057c72.401 123.092 197.711 250.477 321.074 327.358-115.972-77.783-230.747-197.257-298.789-312.94z"/></g><g fill="#415e72"><path d="M154.576 142.866l-18.457 25.968L32.064 13.118 53.693 2.867C66.985-3.438 82.886.966 91.039 13.21l64.048 96.046c6.817 10.225 6.607 23.595-.511 33.61zM509.136 458.284l-10.251 21.655L341.57 377.011l.354-.249 27.213-19.348a29.617 29.617 0 0 1 33.597-.498l96.059 64.022c12.244 8.153 16.648 24.054 10.343 37.346z"/></g></svg><svg viewBox="-20 -20 552 552" width="552" height="552" id="svg--011-mechanics" x="1656.02"><path fill="#cfdce5" d="M169.777 58.271L150.531.75h-38.492L92.793 58.271l20.464 27.169v189.338h36.056V85.44z"/><path d="M124.735 274.778h-11.479V85.44c6.34 0 11.479 5.139 11.479 11.479v177.859z" fill="#bac6cc"/><path fill="#fcd577" d="M100.153 259.225h62.26v43.65h-62.26z"/><path fill="#eac36e" d="M100.153 259.225h24.576v43.65h-24.576z"/><path d="M152.686 332.132a18.964 18.964 0 0 1 6.454-14.274c7.737-6.812 12.556-16.331 12.556-26.639v-.892h-80.82v.892c0 10.309 4.817 19.828 12.556 26.639a18.964 18.964 0 0 1 6.454 14.274 18.95 18.95 0 0 1-5.568 13.441C96 353.89 90.875 364.859 90.875 376.619v87.515c0 22.318 18.092 40.409 40.409 40.409 22.318 0 40.409-18.092 40.409-40.409v-87.515c0-11.762-5.126-22.73-13.441-31.046a18.95 18.95 0 0 1-5.566-13.441z" fill="#ff6f52"/><path d="M115.034 464.136v-87.515c0-11.762 2.062-22.73 5.406-31.046 1.383-3.44 2.239-8.192 2.239-13.443 0-5.687-1.005-10.791-2.596-14.274-3.112-6.812-5.049-16.331-5.049-26.639v-.893H90.875v.893c0 10.308 4.817 19.828 12.556 26.639a18.964 18.964 0 0 1 6.454 14.274 18.954 18.954 0 0 1-5.568 13.443C96 353.891 90.875 364.86 90.875 376.621v87.515c0 22.317 18.092 40.409 40.409 40.409-8.974 0-16.25-18.092-16.25-40.409z" fill="#e25749"/><path d="M356.142 329.884V150.517c0-15.943 4.193-31.519 11.564-45.658 5.162-9.901 8.082-21.154 8.082-33.094 0-40.415-33.403-73.013-74.106-71.729l21.13 40.291c8.14 15.522 2.156 34.704-13.366 42.844-15.522 8.141-34.704 2.156-42.844-13.366l-20.889-39.831c-7.628 10.597-12.454 23.317-13.337 37.047-1.853 28.835 13.332 54.303 36.462 67.324 17.354 9.77 28.367 56.957 28.367 76.872V361.48c0 15.943-4.193 31.519-11.564 45.658-5.162 9.901-8.082 21.154-8.082 33.094 0 40.415 33.403 73.013 74.106 71.73l-21.13-40.291c-8.14-15.522-2.156-34.704 13.366-42.844 15.522-8.141 34.704-2.156 42.844 13.366l20.889 39.831c7.628-10.597 12.454-23.317 13.337-37.047 1.853-28.835-13.332-54.303-36.462-67.324-17.354-9.771-28.367-27.855-28.367-47.769z" fill="#cfdce5"/></svg><svg viewBox="-20 -20 552 552" width="552" height="552" id="svg--012-printed" x="1104" y="1104.02"><path d="M448.456 22.447H63.544C28.45 22.447 0 50.898 0 85.993v403.56h384.91V242.969" fill="#dce8ef"/><path d="M423.428 268.393H512v-182.4c0-35.095-28.45-63.544-63.544-63.544-35.095 0-63.544 28.45-63.544 63.544v182.4" fill="#bac6cc"/><path fill="#4ebfed" d="M43.962 96.803h148.822v175.669H43.962z"/><path fill="#ff6f52" d="M196.43 360.294h148.822v87.832H196.43z"/><g fill="#415e72"><path d="M225.512 87.639h128.904v18.329H225.512zM274.329 131.556h80.099v18.329h-80.099zM225.512 131.556h36.595v18.329h-36.595zM225.512 175.473h128.904v18.329H225.512zM225.512 263.295h128.904v18.329H225.512zM308.544 219.39h45.881v18.329h-45.881zM225.512 219.39h70.809v18.329h-70.809zM384.916 127.487h91.533v18.329h-91.533zM384.916 171.392h91.533v18.329h-91.533zM384.916 215.309h91.533v18.329h-91.533zM34.798 307.212h67.232v18.329H34.798zM113.031 307.212h241.398v18.329H113.031zM34.798 351.129h128.904v18.329H34.798zM34.798 438.964h79.452v18.329H34.798zM126.473 438.964h37.234v18.329h-37.234zM34.798 395.047h128.904v18.329H34.798z"/></g></svg><svg viewBox="-20 -20 552 552" width="552" height="552" id="svg--013-paper-printer" x="552" y="1104.02"><g fill="#314a5f"><path d="M73.388 310.254h385.823v104.372H73.388zM40.698 446.477h49.887v31.507H40.698zM421.415 446.477h49.887v31.507h-49.887z"/></g><path d="M512 209.212v240.193H383.999V395.58h28.239c10.503 0 19.023-8.52 19.023-19.023v-26.283c0-10.503-8.52-19.023-19.023-19.023H99.762c-10.503 0-19.023 8.52-19.023 19.023v26.283c0 10.503 8.52 19.023 19.023 19.023h28.239v53.825H0V209.212c0-19.601 15.898-35.498 35.498-35.498h440.991c19.613 0 35.511 15.899 35.511 35.498z" fill="#fcd577"/><path fill="#cfdce5" d="M122.9 331.246h266.206v163.676H122.9z"/><path fill="#bac6cc" d="M122.9 331.246h266.206v19.061H122.9z"/><g fill="#314a5f"><path d="M237.568 360.095h106.975v17.591H237.568zM167.464 360.095h40.792v17.591h-40.792zM167.464 402.899h177.08v17.591h-177.08zM307.931 445.703h36.612v17.591h-36.612zM167.464 445.703h111.15v17.591h-111.15z"/></g><path fill="#eac36e" d="M420.712 173.718V41.705H91.285v132.013"/><path fill="#cfdce5" d="M122.9 17.078h266.206v163.676H122.9z"/><path d="M64.988 173.711v74.022c0 23.642 19.174 42.828 42.816 42.828h296.392c23.642 0 42.816-19.186 42.816-42.828v-74.022H64.988z" fill="#ff6f52"/><g fill="#cfdce5"><path d="M304.574 211.785c10.87 0 19.692 8.822 19.692 19.692 0 10.87-8.822 19.692-19.692 19.692-10.87 0-19.692-8.822-19.692-19.692 0-10.87 8.822-19.692 19.692-19.692zM376.779 211.785c10.87 0 19.692 8.822 19.692 19.692 0 10.87-8.822 19.692-19.692 19.692-10.87 0-19.692-8.822-19.692-19.692 0-10.87 8.822-19.692 19.692-19.692z"/></g></svg><svg viewBox="-20 -20 552 552" width="552" height="552" id="svg--014-studying" y="1104.02"><path fill="#cfdce5" d="M0 8.198h370.957v495.607H0z"/><path d="M432.203 93.909l39.898-85.711 39.898 85.711v385.139c0 13.673-11.083 24.756-24.756 24.756h-30.286c-13.673 0-24.756-11.083-24.756-24.756V93.909h.002z" fill="#4ebfed"/><path d="M511.996 438.44v40.606c0 13.671-11.086 24.757-24.757 24.757h-30.287c-13.671 0-24.744-11.086-24.744-24.757V438.44h79.788z" fill="#ff6f52"/><path fill="#97e1f7" d="M473.027 93.909h14.845v344.529h-14.845z"/><path d="M432.203 479.048c0 13.673 11.083 24.756 24.756 24.756h7.55c-6.855 0-12.414-11.083-12.414-24.756V93.909l20.007-85.711-39.898 85.711v385.139z" fill="#3ba4bc"/><path fill="#fcd577" d="M511.996 93.91h-79.788l39.888-85.715z"/><path d="M464.512 503.802h-7.559c-13.671 0-24.744-11.086-24.744-24.757V438.44h19.882v40.606c-.001 13.671 5.566 24.756 12.421 24.756z" fill="#e25749"/><path fill="#eac36e" d="M452.09 93.91h-19.882l39.888-85.715z"/><path fill="#fcd577" d="M432.199 429.156H512v18.558h-79.801z"/><g fill="#415e72"><path d="M76.918 72.858h217.12v18.558H76.918zM268.279 168.287h56.291v18.558h-56.291zM46.393 168.287h209.511v18.558H46.393zM46.393 264.395H324.57v18.558H46.393zM121.681 216.341h202.892v18.558H121.681zM46.393 216.341h62.912v18.558H46.393zM46.393 408.556H324.57v18.558H46.393zM244.154 360.502h80.416v18.558h-80.416zM46.393 360.502h185.385v18.558H46.393z"/></g></svg><svg viewBox="-20 -20 552 552" width="552" height="552" id="svg--015-turned-off" x="1104.02" y="552"><path d="M216.473 486.839C223.426 501.7 238.506 512 256.001 512c17.496 0 32.575-10.3 39.528-25.161" fill="#415e72"/><path d="M327.196 433.215c14.655 0 26.537 11.881 26.537 26.537v1.785c0 14.655-11.881 26.537-26.537 26.537H184.803c-14.655 0-26.537-11.881-26.537-26.537v-1.785c0-14.655 11.881-26.537 26.537-26.537h142.393z" fill="#cfdce5"/><path d="M196.177 461.537v-1.785c0-14.655 11.881-26.537 26.537-26.537h-37.909c-14.655 0-26.537 11.881-26.537 26.537v1.785c0 14.655 11.881 26.537 26.537 26.537h37.909c-14.656-.001-26.537-11.881-26.537-26.537z" fill="#bac6cc"/><path d="M341.139 379.591c14.655 0 26.537 11.881 26.537 26.537v1.785c0 14.655-11.881 26.537-26.537 26.537H170.86c-14.655 0-26.537-11.881-26.537-26.537v-1.785c0-14.655 11.881-26.537 26.537-26.537" fill="#cfdce5"/><path d="M182.234 407.913v-1.785c0-14.655 11.881-26.537 26.537-26.537h-37.909c-14.655 0-26.537 11.881-26.537 26.537v1.785c0 14.655 11.881 26.537 26.537 26.537h37.909c-14.656-.001-26.537-11.882-26.537-26.537z" fill="#bac6cc"/><path d="M356.527 332.139c6.978-33.393 19.428-65.584 36.593-95.445 13.315-23.16 20.929-50.013 20.929-78.645 0-89.332-74.115-161.356-164.21-157.933C166.677 3.278 99.728 71.459 97.986 154.661c-.631 30.111 7.163 58.354 21.185 82.537 17.184 29.639 29.497 61.692 36.38 94.941h200.976z" fill="#fcd577"/><path d="M164.66 237.199c-14.021-24.184-21.815-52.427-21.185-82.537C145.1 77.054 203.459 12.525 278.788 1.632a159.87 159.87 0 0 0-28.95-1.514C166.677 3.278 99.727 71.459 97.986 154.661c-.631 30.111 7.163 58.354 21.185 82.537 17.184 29.639 29.497 61.692 36.38 94.941h45.49c-6.884-33.249-19.196-65.301-36.381-94.94z" fill="#eac36e"/><path d="M288.283 258.696h-64.567c-10.518 0-19.045 8.527-19.045 19.045v54.398H307.33v-54.398c0-10.518-8.527-19.045-19.047-19.045z" fill="#415e72"/><g fill="#ff6f52"><path d="M246.301 209.764v96.048a9.255 9.255 0 0 1-9.259 9.259c-5.111 0-9.259-4.148-9.259-9.259v-93.505l-35.358-59.74c-2.593-4.407-1.148-10.086 3.259-12.691 4.395-2.605 10.074-1.148 12.679 3.259l36.654 61.913a9.338 9.338 0 0 1 1.284 4.716zM319.571 152.567l-35.358 59.74v93.505c0 5.111-4.148 9.259-9.259 9.259-5.111 0-9.259-4.148-9.259-9.259v-96.048c0-1.654.444-3.284 1.296-4.716l36.642-61.913c2.605-4.407 8.284-5.864 12.679-3.259 4.408 2.605 5.864 8.284 3.259 12.691z"/></g><g fill="#fc8c7a"><path d="M227.782 258.69H246.3v47.123a9.255 9.255 0 0 1-9.259 9.259c-5.111 0-9.259-4.148-9.259-9.259V258.69zM284.214 258.69v47.123c0 5.111-4.148 9.259-9.259 9.259s-9.259-4.148-9.259-9.259V258.69h18.518z"/></g><path d="M274.64 380.825H170.86c-14.655 0-26.537-11.881-26.537-26.537v-1.785c0-14.655 11.881-26.537 26.537-26.537h170.279c14.655 0 26.537 11.881 26.537 26.537v1.785c0 14.655-11.881 26.537-26.537 26.537h-36.172" fill="#cfdce5"/><path d="M182.234 354.288v-1.785c0-14.655 11.881-26.537 26.537-26.537h-37.909c-14.655 0-26.537 11.881-26.537 26.537v1.785c0 14.655 11.881 26.537 26.537 26.537h37.909c-14.656 0-26.537-11.881-26.537-26.537z" fill="#bac6cc"/></svg><svg viewBox="-20 -20 552 552" width="552" height="552" id="svg--016-fireplace" x="1104.02"><path fill="#fcd577" d="M425.608 211.129l-1.046 1.046v275.9H87.448v-275.9l-1.044-1.046L256.005 41.553z"/><path fill="#eac36e" d="M87.448 254.254L256.005 85.721l168.557 168.533v-42.079l1.046-1.045L256.005 41.553 86.404 211.13l1.044 1.045z"/><path fill="#cfdce5" d="M407.169 192.713V56.484H328.8v57.862"/><path fill="#ff6f52" d="M494.382 297.543L256.001 59.16 17.618 297.543 0 279.925l256.001-256 255.999 256z"/><path fill="#cfdce5" d="M125.71 284.422h115.133v203.639H125.71z"/><path fill="#eac36e" d="M246.498 488.063h-11.326V290.081H131.368v197.982h-11.325V278.756h126.455z"/><g fill="#4ebfed"><path d="M277.163 284.422h115.133v115.133H277.163zM218.634 146.865h74.747v74.747h-74.747z"/></g><g fill="#eac36e"><path d="M271.499 278.756V405.21h126.456V278.756H271.499zm115.13 57.564h-46.24v-46.24h46.24v46.24zm-57.565-46.239v46.24h-46.24v-46.24h46.24zm-46.24 57.564h46.24v46.24h-46.24v-46.24zm57.566 46.24v-46.24h46.24v46.24h-46.24zM299.041 141.205h-86.072v86.072h86.072v-86.072zm-11.325 74.747h-63.421V152.53h63.421v63.422z"/></g><circle cx="209.574" cy="391.955" r="7.928" fill="#ff6f52"/></svg><svg viewBox="-20 -20 552 552" width="552" height="552" id="svg--017-title" y="552.02"><g fill="#ff6f52"><path d="M246.427 368.462l-8.332 29.902L206.409 512l-41.861-46.649-59.945 18.261 34.115-122.356 7.358-26.369 58.303 6.219zM407.404 483.612l-59.957-18.261L305.598 512 273.9 398.364l-8.332-29.89 42.049-27.368 58.314-6.219 7.358 26.369z"/></g><g fill="#e25749"><path d="M204.379 341.106l42.049 27.356-8.332 29.902c-11.513-7.417-22.145-19.258-33.716-23.013-17.908-5.821-44.055 4.19-58.96-6.666-2.711-1.983-4.894-4.506-6.701-7.429l7.358-26.37 58.302 6.22zM373.289 361.256c-1.807 2.922-3.99 5.445-6.701 7.429-14.916 10.855-41.063.845-58.971 6.666-11.571 3.755-22.204 15.597-33.716 23.013l-8.332-29.891 42.049-27.367 58.314-6.22 7.357 26.37z"/></g><path d="M422.986 188.116c0-19.154 17.581-40.861 11.97-58.144-5.816-17.912-32.993-25.097-43.844-40.005-10.959-15.059-9.468-43.087-24.527-54.047-14.909-10.851-41.052-.845-58.964-6.661C290.336 23.647 275.154 0 256 0s-34.336 23.647-51.618 29.259c-17.912 5.816-44.055-4.19-58.965 6.661-15.059 10.959-13.569 38.988-24.527 54.047-10.851 14.909-38.028 22.093-43.844 40.004-5.612 17.283 11.969 38.991 11.969 58.145s-17.581 40.861-11.97 58.144c5.816 17.912 32.993 25.097 43.844 40.005 10.959 15.059 9.469 43.087 24.527 54.047 14.909 10.851 41.052.845 58.964 6.661 17.283 5.612 32.465 29.259 51.619 29.259s34.336-23.647 51.618-29.259c17.912-5.816 44.055 4.19 58.965-6.661 15.059-10.959 13.569-38.988 24.527-54.047 10.851-14.909 38.028-22.093 43.844-40.004 5.614-17.283-11.967-38.992-11.967-58.145z" fill="#fcd577"/><circle cx="256" cy="188.11" r="118.482" fill="#dce8ef"/><g fill="#415e72"><path d="M213.2 133.375h85.593v17.603H213.2zM213.2 225.253h85.593v17.603H213.2zM188.826 179.308h134.337v17.603H188.826z"/></g></svg><svg viewBox="-20 -20 552 552" width="552" height="552" id="svg--018-savings" x="552.02"><path d="M495.96 288.227V395.63h-49.846c-6.684 21.318-16.904 41.055-29.983 58.548V512h-84.794v-40.817l-1.705.64a200.91 200.91 0 0 1-70.386 12.728c-24.44 0-48.88-4.452-72.066-13.367V512h-84.794v-57.821a195.728 195.728 0 0 1-21.192-35.663l-9.718-25.932c-5.655-13.668-8.201-28.114-8.979-41.72-1.756-31.099 5.894-61.997 21.13-89.158 4.865-8.69 10.559-18.032 16.352-25.832 25.393-34.234 59.426-58.699 96.995-72.342 57.583-20.941 123.504-16.452 179.445 17.267 2.533 1.53 4.314 2.684 5.179 3.373 9.555-13.969 25.644-23.136 43.852-23.136h10.458v91.528a194.231 194.231 0 0 1 13.004 35.663h47.048z" fill="#f9a395"/><path d="M331.339 471.183l-1.705.64a200.91 200.91 0 0 1-70.386 12.728c-24.44 0-48.88-4.452-72.066-13.367V512h-84.794v-57.821a195.728 195.728 0 0 1-21.192-35.663l-9.718-25.932c-5.655-13.668-8.201-28.114-8.978-41.72-1.756-31.099 5.894-61.997 21.13-89.158 4.865-8.69 10.559-18.032 16.352-25.832 25.393-34.234 59.426-58.699 96.995-72.342 0 0-99.975 101.284-81.421 183.332 28.212 124.77 125.596 124.319 215.783 124.319z" fill="#e59188"/><path d="M214.71 199.16l-5.955-17.843a191.09 191.09 0 0 1 22.947-6.097c28.253-5.647 57.817-4.725 85.496 2.666l-4.853 18.173c-24.907-6.651-51.517-7.479-76.956-2.394a172.202 172.202 0 0 0-20.679 5.495z" fill="#344f5e"/><path d="M57.983 331.544c-11.174 0-20.807-2.913-27.877-8.434-9.333-7.287-14.066-18.486-14.066-33.284a9.405 9.405 0 0 1 18.81 0c0 8.832 2.235 14.87 6.832 18.46 7.938 6.195 22.252 4.458 26.64 3.361a9.402 9.402 0 0 1 11.405 6.843c1.26 5.04-1.803 10.146-6.843 11.405-.66.165-6.672 1.613-14.589 1.65l-.312-.001z" fill="#e59188"/><path d="M407.961 287.336a17.79 17.79 0 0 1-1.856 7.95 17.96 17.96 0 0 1-16.151 10.069c-9.944 0-18.007-8.063-18.007-18.02 0-9.568 7.461-17.393 16.891-17.97.376-.025.74-.038 1.116-.038 9.944.002 18.007 8.065 18.007 18.009z" fill="#344f5e"/><path d="M407.961 287.336a17.79 17.79 0 0 1-1.856 7.95c-.364.025-.74.038-1.104.038-9.944 0-18.007-8.063-18.007-18.02 0-2.847.665-5.543 1.843-7.938.376-.025.74-.038 1.116-.038 9.945.001 18.008 8.064 18.008 18.008z" fill="#415e72"/><path d="M319.701 61.194c0 33.807-27.399 61.194-61.194 61.194-12.176 0-23.525-3.549-33.055-9.681-16.929-10.885-28.139-29.882-28.139-51.514C197.312 27.399 224.712 0 258.507 0a61.005 61.005 0 0 1 35.4 11.261c15.612 11.097 25.794 29.33 25.794 49.933z" fill="#fcd577"/><path d="M293.907 61.194c0 19.557-15.85 35.4-35.4 35.4a35.225 35.225 0 0 1-19.122-5.6c-9.794-6.296-16.278-17.286-16.278-29.8 0-19.55 15.85-35.4 35.4-35.4a35.289 35.289 0 0 1 20.479 6.514c9.031 6.42 14.921 16.968 14.921 28.886z" fill="#eac36e"/><path d="M319.706 61.193c0 33.807-27.399 61.194-61.194 61.194-12.176 0-23.525-3.549-33.055-9.681l14.433-21.393 39.576-58.649 14.446-21.405c15.612 11.098 25.794 29.331 25.794 49.934z" fill="#fcecc8"/><path d="M293.912 61.193c0 19.562-15.85 35.4-35.4 35.4a35.252 35.252 0 0 1-18.622-5.279l39.576-58.649c8.765 6.445 14.446 16.828 14.446 28.528z" fill="#fcd577"/></svg></svg>