<svg xmlns="http://www.w3.org/2000/svg" viewBox="0 0 473.931 473.931"><circle cx="236.966" cy="236.966" r="236.966" fill="#a2d4de"/><path d="M210.751 219.537h-77.776V74.319c0-5.265 4.269-9.53 9.527-9.53h58.719c5.257 0 9.527 4.266 9.527 9.53v145.218h.003z" fill="#98c8d0"/><path d="M132.975 74.319c0-5.265 4.269-9.53 9.527-9.53h58.719c5.257 0 9.527 4.266 9.527 9.53h-77.773z" fill="#8bbec3"/><path d="M146.688 216.132c-.64 0-1.16-.513-1.16-1.156v-7.147c0-.636.52-1.16 1.16-1.16h16.505c.644 0 1.164.524 1.164 1.16v7.147c0 .644-.52 1.156-1.164 1.156h-16.505zm33.841 0a1.155 1.155 0 0 1-1.156-1.156v-7.147c0-.636.52-1.16 1.156-1.16h16.512c.632 0 1.152.524 1.152 1.16v7.147c0 .644-.52 1.156-1.152 1.156h-16.512zm0-19.042a1.157 1.157 0 0 1-1.156-1.16v-7.147c0-.636.52-1.156 1.156-1.156h4.209c.636 0 1.16.52 1.16 1.156v7.147a1.16 1.16 0 0 1-1.16 1.16h-4.209zm12.303 0c-.64 0-1.156-.516-1.156-1.16v-7.147c0-.636.516-1.156 1.156-1.156h4.213c.632 0 1.152.52 1.152 1.156v7.147c0 .644-.52 1.16-1.152 1.16h-4.213zm-46.159 0c-.64 0-1.164-.516-1.164-1.16v-7.147c0-.636.524-1.156 1.164-1.156h4.206c.64 0 1.16.52 1.16 1.156v7.147c0 .644-.52 1.16-1.16 1.16h-4.206zm12.299 0c-.632 0-1.16-.516-1.16-1.16v-7.147c0-.636.528-1.156 1.16-1.156h4.209c.64 0 1.164.52 1.164 1.156v7.147c0 .644-.524 1.16-1.164 1.16h-4.209zm21.557-24.602a1.16 1.16 0 0 1-1.156-1.156v-7.147c0-.636.52-1.16 1.156-1.16h4.209c.636 0 1.16.524 1.16 1.16v7.147c0 .636-.524 1.156-1.16 1.156h-4.209zm12.303 0c-.64 0-1.156-.52-1.156-1.156v-7.147c0-.636.516-1.16 1.156-1.16h4.213c.632 0 1.152.524 1.152 1.16v7.147c0 .636-.52 1.156-1.152 1.156h-4.213zm-46.159 0c-.64 0-1.164-.52-1.164-1.156v-7.147c0-.636.524-1.16 1.164-1.16h4.206c.64 0 1.16.524 1.16 1.16v7.147a1.16 1.16 0 0 1-1.16 1.156h-4.206zm12.299 0c-.632 0-1.16-.52-1.16-1.156v-7.147c0-.636.528-1.16 1.16-1.16h4.209c.64 0 1.164.524 1.164 1.16v7.147c0 .636-.524 1.156-1.164 1.156h-4.209zm21.557-24.599a1.165 1.165 0 0 1-1.156-1.16v-7.143c0-.636.52-1.164 1.156-1.164h4.209c.636 0 1.16.528 1.16 1.164v7.143c0 .632-.524 1.16-1.16 1.16h-4.209zm12.303 0c-.64 0-1.156-.528-1.156-1.16v-7.143c0-.636.516-1.164 1.156-1.164h4.213c.632 0 1.152.528 1.152 1.164v7.143c0 .632-.52 1.16-1.152 1.16h-4.213zm-46.159 0a1.17 1.17 0 0 1-1.164-1.16v-7.143a1.17 1.17 0 0 1 1.164-1.164h4.206c.64 0 1.16.528 1.16 1.164v7.143c0 .632-.52 1.16-1.16 1.16h-4.206zm12.299 0c-.632 0-1.16-.528-1.16-1.16v-7.143c0-.636.528-1.164 1.16-1.164h4.209c.64 0 1.164.528 1.164 1.164v7.143a1.17 1.17 0 0 1-1.164 1.16h-4.209zm21.557-24.598a1.162 1.162 0 0 1-1.156-1.156v-7.147c0-.636.52-1.156 1.156-1.156h4.209c.636 0 1.16.52 1.16 1.156v7.147c0 .632-.524 1.156-1.16 1.156h-4.209zm12.303 0a1.16 1.16 0 0 1-1.156-1.156v-7.147c0-.636.516-1.156 1.156-1.156h4.213c.632 0 1.152.52 1.152 1.156v7.147a1.16 1.16 0 0 1-1.152 1.156h-4.213zm-46.159 0c-.64 0-1.164-.524-1.164-1.156v-7.147c0-.636.524-1.156 1.164-1.156h4.206c.64 0 1.16.52 1.16 1.156v7.147c0 .632-.52 1.156-1.16 1.156h-4.206zm12.299 0c-.632 0-1.16-.524-1.16-1.156v-7.147c0-.636.528-1.156 1.16-1.156h4.209c.64 0 1.164.52 1.164 1.156v7.147c0 .632-.524 1.156-1.164 1.156h-4.209zm21.557-24.606a1.157 1.157 0 0 1-1.156-1.156v-7.143c0-.644.52-1.167 1.156-1.167h4.209c.636 0 1.16.524 1.16 1.167v7.143a1.16 1.16 0 0 1-1.16 1.156h-4.209zm12.303 0c-.64 0-1.156-.516-1.156-1.156v-7.143a1.16 1.16 0 0 1 1.156-1.167h4.213c.632 0 1.152.524 1.152 1.167v7.143c0 .64-.52 1.156-1.152 1.156h-4.213zm-46.159 0a1.16 1.16 0 0 1-1.164-1.156v-7.143c0-.644.524-1.167 1.164-1.167h4.206c.64 0 1.16.524 1.16 1.167v7.143c0 .64-.52 1.156-1.16 1.156h-4.206zm12.299 0c-.632 0-1.16-.516-1.16-1.156v-7.143a1.17 1.17 0 0 1 1.16-1.167h4.209c.64 0 1.164.524 1.164 1.167v7.143a1.16 1.16 0 0 1-1.164 1.156h-4.209z" fill="#e1e0e0"/><path d="M168.114 207.559c0-.505.415-.92.913-.92h5.654c.501 0 .917.415.917.92v11.977h-7.484v-11.977z" fill="#8bbec3"/><circle cx="169.277" cy="213.131" r=".468" fill="#cdcccb"/><path d="M339.898 219.537h-77.765V74.319c0-5.265 4.269-9.53 9.523-9.53h58.727c5.257 0 9.515 4.266 9.515 9.53v145.218z" fill="#98c8d0"/><path d="M262.133 74.319c0-5.265 4.269-9.53 9.523-9.53h58.727c5.257 0 9.515 4.266 9.515 9.53h-77.765z" fill="#8bbec3"/><path d="M275.835 216.132a1.151 1.151 0 0 1-1.149-1.156v-7.147c0-.636.516-1.16 1.149-1.16h16.512c.64 0 1.16.524 1.16 1.16v7.147c0 .644-.52 1.156-1.16 1.156h-16.512zm33.852 0a1.156 1.156 0 0 1-1.164-1.156v-7.147c0-.636.52-1.16 1.164-1.16h16.509c.64 0 1.156.524 1.156 1.16v7.147c0 .644-.516 1.156-1.156 1.156h-16.509zm0-19.042a1.16 1.16 0 0 1-1.164-1.16v-7.147c0-.636.52-1.156 1.164-1.156h4.206c.64 0 1.164.52 1.164 1.156v7.147c0 .644-.524 1.16-1.164 1.16h-4.206zm12.295 0c-.632 0-1.16-.516-1.16-1.16v-7.147c0-.636.528-1.156 1.16-1.156h4.213c.64 0 1.156.52 1.156 1.156v7.147c0 .644-.516 1.16-1.156 1.16h-4.213zm-46.162 0a1.157 1.157 0 0 1-1.156-1.16v-7.147c0-.636.52-1.156 1.156-1.156h4.217c.632 0 1.156.52 1.156 1.156v7.147a1.16 1.16 0 0 1-1.156 1.16h-4.217zm12.299 0a1.154 1.154 0 0 1-1.149-1.16v-7.147c0-.636.516-1.156 1.149-1.156h4.209c.644 0 1.164.52 1.164 1.156v7.147c0 .644-.52 1.16-1.164 1.16h-4.209zm21.568-24.602a1.16 1.16 0 0 1-1.164-1.156v-7.147c0-.636.52-1.16 1.164-1.16h4.206c.64 0 1.164.524 1.164 1.16v7.147c0 .636-.524 1.156-1.164 1.156h-4.206zm12.295 0c-.632 0-1.16-.52-1.16-1.156v-7.147c0-.636.528-1.16 1.16-1.16h4.213c.64 0 1.156.524 1.156 1.16v7.147c0 .636-.516 1.156-1.156 1.156h-4.213zm-46.162 0a1.16 1.16 0 0 1-1.156-1.156v-7.147c0-.636.52-1.16 1.156-1.16h4.217c.632 0 1.156.524 1.156 1.16v7.147c0 .636-.524 1.156-1.156 1.156h-4.217zm12.299 0c-.632 0-1.149-.52-1.149-1.156v-7.147c0-.636.516-1.16 1.149-1.16h4.209c.644 0 1.164.524 1.164 1.16v7.147a1.16 1.16 0 0 1-1.164 1.156h-4.209zm21.568-24.599a1.167 1.167 0 0 1-1.164-1.16v-7.143c0-.636.52-1.164 1.164-1.164h4.206c.64 0 1.164.528 1.164 1.164v7.143a1.17 1.17 0 0 1-1.164 1.16h-4.206zm12.295 0c-.632 0-1.16-.528-1.16-1.16v-7.143c0-.636.528-1.164 1.16-1.164h4.213c.64 0 1.156.528 1.156 1.164v7.143c0 .632-.516 1.16-1.156 1.16h-4.213zm-46.162 0a1.165 1.165 0 0 1-1.156-1.16v-7.143c0-.636.52-1.164 1.156-1.164h4.217c.632 0 1.156.528 1.156 1.164v7.143c0 .632-.524 1.16-1.156 1.16h-4.217zm12.299 0a1.162 1.162 0 0 1-1.149-1.16v-7.143c0-.636.516-1.164 1.149-1.164h4.209c.644 0 1.164.528 1.164 1.164v7.143c0 .632-.52 1.16-1.164 1.16h-4.209zm21.568-24.598a1.163 1.163 0 0 1-1.164-1.156v-7.147c0-.636.52-1.156 1.164-1.156h4.206c.64 0 1.164.52 1.164 1.156v7.147c0 .632-.524 1.156-1.164 1.156h-4.206zm12.295 0c-.632 0-1.16-.524-1.16-1.156v-7.147c0-.636.528-1.156 1.16-1.156h4.213c.64 0 1.156.52 1.156 1.156v7.147a1.16 1.16 0 0 1-1.156 1.156h-4.213zm-46.162 0a1.162 1.162 0 0 1-1.156-1.156v-7.147c0-.636.52-1.156 1.156-1.156h4.217c.632 0 1.156.52 1.156 1.156v7.147c0 .632-.524 1.156-1.156 1.156h-4.217zm12.299 0a1.158 1.158 0 0 1-1.149-1.156v-7.147c0-.636.516-1.156 1.149-1.156h4.209c.644 0 1.164.52 1.164 1.156v7.147c0 .632-.52 1.156-1.164 1.156h-4.209zm21.568-24.606a1.158 1.158 0 0 1-1.164-1.156v-7.143c0-.644.52-1.167 1.164-1.167h4.206c.64 0 1.164.524 1.164 1.167v7.143a1.16 1.16 0 0 1-1.164 1.156h-4.206zm12.295 0c-.632 0-1.16-.516-1.16-1.156v-7.143a1.17 1.17 0 0 1 1.16-1.167h4.213c.64 0 1.156.524 1.156 1.167v7.143c0 .64-.516 1.156-1.156 1.156h-4.213zm-46.162 0a1.157 1.157 0 0 1-1.156-1.156v-7.143c0-.644.52-1.167 1.156-1.167h4.217c.632 0 1.156.524 1.156 1.167v7.143a1.16 1.16 0 0 1-1.156 1.156h-4.217zm12.299 0a1.153 1.153 0 0 1-1.149-1.156v-7.143a1.16 1.16 0 0 1 1.149-1.167h4.209c.644 0 1.164.524 1.164 1.167v7.143c0 .64-.52 1.156-1.164 1.156h-4.209z" fill="#e1e0e0"/><path d="M297.272 207.559c0-.505.408-.92.917-.92h5.646c.505 0 .913.415.913.92v11.977h-7.476v-11.977z" fill="#8bbec3"/><circle cx="298.443" cy="213.131" r=".468" fill="#cdcccb"/><path d="M290.05 242.552H185.558V47.442c0-7.072 5.729-12.801 12.801-12.801h78.895c7.068 0 12.797 5.729 12.797 12.801v195.11h-.001z" fill="#a6ced1"/><path d="M185.558 47.442c0-7.072 5.729-12.801 12.801-12.801h78.895c7.068 0 12.797 5.729 12.797 12.801H185.558z" fill="#8bbec3"/><path d="M203.982 237.976a1.554 1.554 0 0 1-1.553-1.553v-9.598c0-.857.7-1.557 1.553-1.557h22.181c.857 0 1.557.703 1.557 1.557v9.598c0 .857-.7 1.553-1.557 1.553h-22.181zm45.462 0a1.554 1.554 0 0 1-1.553-1.553v-9.598c0-.857.7-1.557 1.553-1.557h22.185c.857 0 1.557.703 1.557 1.557v9.598c0 .857-.7 1.553-1.557 1.553h-22.185zm0-25.59c-.857 0-1.553-.7-1.553-1.553v-9.601c0-.857.7-1.557 1.553-1.557h5.661a1.56 1.56 0 0 1 1.553 1.557v9.601c0 .857-.696 1.553-1.553 1.553h-5.661zm16.532 0c-.861 0-1.557-.7-1.557-1.553v-9.601c0-.857.696-1.557 1.557-1.557h5.654c.857 0 1.557.703 1.557 1.557v9.601c0 .857-.7 1.553-1.557 1.553h-5.654zm-62.016 0a1.56 1.56 0 0 1-1.557-1.553v-9.601c0-.857.7-1.557 1.557-1.557h5.658c.857 0 1.557.703 1.557 1.557v9.601c0 .857-.7 1.553-1.557 1.553h-5.658zm16.523 0a1.56 1.56 0 0 1-1.557-1.553v-9.601c0-.857.703-1.557 1.557-1.557h5.654c.861 0 1.56.703 1.56 1.557v9.601c0 .857-.7 1.553-1.56 1.553h-5.654zm28.961-33.051a1.555 1.555 0 0 1-1.553-1.557v-9.594c0-.857.7-1.557 1.553-1.557h5.661c.857 0 1.553.7 1.553 1.557v9.594c0 .861-.696 1.557-1.553 1.557h-5.661zm16.532 0a1.556 1.556 0 0 1-1.557-1.557v-9.594c0-.857.696-1.557 1.557-1.557h5.654c.857 0 1.557.7 1.557 1.557v9.594c0 .861-.7 1.557-1.557 1.557h-5.654zm-62.016 0a1.558 1.558 0 0 1-1.557-1.557v-9.594c0-.857.7-1.557 1.557-1.557h5.658c.857 0 1.557.7 1.557 1.557v9.594c0 .861-.7 1.557-1.557 1.557h-5.658zm16.523 0a1.558 1.558 0 0 1-1.557-1.557v-9.594c0-.857.703-1.557 1.557-1.557h5.654c.861 0 1.56.7 1.56 1.557v9.594c0 .861-.7 1.557-1.56 1.557h-5.654zm28.961-33.051c-.857 0-1.553-.7-1.553-1.56v-9.594c0-.857.7-1.557 1.553-1.557h5.661c.857 0 1.553.7 1.553 1.557v9.594c0 .861-.696 1.56-1.553 1.56h-5.661zm16.532 0c-.861 0-1.557-.7-1.557-1.56v-9.594c0-.857.696-1.557 1.557-1.557h5.654c.857 0 1.557.7 1.557 1.557v9.594c0 .861-.7 1.56-1.557 1.56h-5.654zm-62.016 0c-.857 0-1.557-.7-1.557-1.56v-9.594c0-.857.7-1.557 1.557-1.557h5.658c.857 0 1.557.7 1.557 1.557v9.594c0 .861-.7 1.56-1.557 1.56h-5.658zm16.523 0c-.857 0-1.557-.7-1.557-1.56v-9.594c0-.857.703-1.557 1.557-1.557h5.654c.861 0 1.56.7 1.56 1.557v9.594c0 .861-.7 1.56-1.56 1.56h-5.654zm28.961-33.051a1.56 1.56 0 0 1-1.553-1.557v-9.601c0-.857.7-1.549 1.553-1.549h5.661c.857 0 1.553.696 1.553 1.549v9.601c0 .857-.696 1.557-1.553 1.557h-5.661zm16.532 0a1.56 1.56 0 0 1-1.557-1.557v-9.601c0-.857.696-1.549 1.557-1.549h5.654c.857 0 1.557.696 1.557 1.549v9.601c0 .857-.7 1.557-1.557 1.557h-5.654zm-62.016 0a1.563 1.563 0 0 1-1.557-1.557v-9.601c0-.857.7-1.549 1.557-1.549h5.658c.857 0 1.557.696 1.557 1.549v9.601c0 .857-.7 1.557-1.557 1.557h-5.658zm16.523 0a1.563 1.563 0 0 1-1.557-1.557v-9.601c0-.857.703-1.549 1.557-1.549h5.654c.861 0 1.56.696 1.56 1.549v9.601c0 .857-.7 1.557-1.56 1.557h-5.654zm28.961-33.051c-.857 0-1.553-.7-1.553-1.557v-9.598c0-.857.7-1.557 1.553-1.557h5.661c.857 0 1.553.7 1.553 1.557v9.598c0 .857-.696 1.557-1.553 1.557h-5.661zm16.532 0c-.861 0-1.557-.7-1.557-1.557v-9.598c0-.857.696-1.557 1.557-1.557h5.654c.857 0 1.557.7 1.557 1.557v9.598c0 .857-.7 1.557-1.557 1.557h-5.654zm-62.016 0a1.56 1.56 0 0 1-1.557-1.557v-9.598c0-.857.7-1.557 1.557-1.557h5.658c.857 0 1.557.7 1.557 1.557v9.598c0 .857-.7 1.557-1.557 1.557h-5.658zm16.523 0a1.56 1.56 0 0 1-1.557-1.557v-9.598c0-.857.703-1.557 1.557-1.557h5.654c.861 0 1.56.7 1.56 1.557v9.598c0 .857-.7 1.557-1.56 1.557h-5.654z" fill="#e1e0e0"/><path d="M232.767 226.451c0-.677.554-1.227 1.235-1.227h7.588c.674 0 1.224.55 1.224 1.227v16.101h-10.05v-16.101h.003z" fill="#8bbec3"/><circle cx="234.346" cy="233.935" r=".621" fill="#cdcccb"/><path d="M294.862 211.806l-28.58-19.547s-3.633-4.412-17.747-5.47c-22.275-1.665-66.495-11.854-66.495-11.854-27.24 8.09-24.834 32.25-24.834 32.25l71.299 13.642s32.823-2.552 41.002 2.563c19.876 12.396 29.732-8.06 29.732-8.06l-4.377-3.524z" fill="#fbbf96"/><path d="M280.097 201.643l19.061 12.232s-4.296 4.034-7.951 3.499c-4.042-.599-12.566-9.92-11.11-15.731z" fill="#fdd6b2"/><path d="M291.958 219.926l-34.17-9.077-32.198-3.977 22.87-1.212s9.377-.632 16.385 3.098c5.419 2.88 27.113 11.168 27.113 11.168z" fill="#edac80"/><path d="M260.079 197.67c-.614-.135-.969-.745-.834-1.351l1.265-5.56c.146-.614.76-.988 1.351-.834.614.142.988.76.842 1.358l-1.265 5.564c-.14.613-.746.991-1.359.823zm-3.529-3.645a1.118 1.118 0 0 1-.827-1.366l.591-3.005c.135-.606.752-.973 1.351-.834.617.146.98.763.842 1.366l-.58 3.001a1.15 1.15 0 0 1-1.377.838z" fill="#fdd6b2"/><path d="M298.622 345.784c8.296-5.152 30.638-27.685 25.493-35.992-5.145-8.288-16.045-10.836-24.336-5.691l-64.167 39.158c-8.296 5.149-12.396 13.1-7.244 21.384 5.149 8.299 11.76 8.426 22.963 3.566l47.291-22.425z" fill="#fbbf96"/><path d="M272.524 324.688l-46.518 33.141c-.247-8.221 3.48-10.739 8.217-13.676l51.011-33.433c-1.197 1.732-10.858 12.692-12.71 13.968z" fill="#edac80"/><g fill="#f1a977"><path d="M223.099 235.147l15.94-13.497-3.405-26.843 84.844-28.999 80.773 86.139s-21.706 34.144-43.453 54.282c-21.747 20.138-60.197 40.168-60.197 40.168l-74.502-111.25z"/><path d="M316.95 297.129c8.288-5.141 10.832-16.033 5.691-24.333-5.141-8.299-16.037-10.847-24.333-5.691l-90.85 56.358c-8.299 5.145-10.847 16.033-5.699 24.333 5.141 8.292 16.037 10.84 24.333 5.699l90.858-56.366z"/></g><path d="M239.817 307.797l-40.714 31.023c-.116-6.96 2.687-11.831 7.427-14.769l36.639-23.625c-1.197 1.74-1.5 6.114-3.352 7.371z" fill="#edac80"/><path d="M237.157 262.971c7.121-5.078 31.341-18.716 26.263-25.822l4.707-23.307c-5.078-7.113-55.228 27.667-59.236 30.503l-90.958 62.117c-10.222 7.311-11.88 17.201-6.791 24.321 5.07 7.113 14.967 8.763 22.076 3.682l103.939-71.494zm59.044 81.522c7.719-3.412 10.069-14.686 6.077-21.163-3.981-6.481-12.86-8.239-19.846-3.94l-96.721 58.502c-6.975 4.288-9.407 13.021-5.418 19.498 3.989 6.469 12.576 7.562 18.23 4.591l98.101-57.735" fill="#f1a977"/><path d="M275.001 324.257l-45.29 30.241c-5.343 3.173-43.311 23.861-39.315 21.414l98.139-61.095c-1.029 1.407-11.982 8.385-13.534 9.44z" fill="#edac80"/><path d="M254.87 295.681c9.343-4.561 11.723-18.548 6.511-26.338-5.205-7.787-16.228-9.545-24.613-3.933l-116.384 76.508c-8.397 5.605-10.978 16.464-5.766 24.258 5.205 7.779 15.828 8.737 22.656 4.804l118.112-75.632" fill="#f1a977"/><path d="M227.828 271.745l-54.349 39.333c-6.447 4.157-52.224 31.393-47.423 28.187l118.004-79.767c-1.205 1.782-14.353 10.882-16.232 12.247z" fill="#edac80"/><path d="M273.111 320.407c8.823-4.486 10.885-17.852 5.796-25.186-5.078-7.33-15.596-8.842-23.502-3.368l-109.682 74.648c-7.914 5.459-10.211 15.85-5.13 23.191 5.078 7.338 15.207 8.075 21.657 4.224l111.344-73.825" fill="#f1a977"/><path d="M246.982 298.027l-51.172 38.286c-6.065 4.056-49.257 30.686-44.733 27.566l111.183-77.776c-1.123 1.721-13.508 10.592-15.278 11.924z" fill="#edac80"/><path d="M177.591 345.784c-8.295-5.152-30.638-27.685-25.493-35.992 5.145-8.288 16.041-10.836 24.336-5.691l64.164 39.158c8.292 5.149 12.396 13.1 7.244 21.384-5.149 8.299-11.764 8.426-22.963 3.566l-47.288-22.425z" fill="#fbbf96"/><path d="M203.69 324.688l46.514 33.141c.247-8.221-3.48-10.739-8.213-13.676l-51.015-33.433c1.197 1.732 10.858 12.692 12.714 13.968z" fill="#edac80"/><g fill="#fbbf96"><path d="M253.111 235.147l-15.936-13.497 3.405-26.843-84.844-28.999-80.77 86.139s21.706 34.144 43.453 54.282 60.197 40.168 60.197 40.168l74.495-111.25z"/><path d="M159.264 297.129c-8.288-5.141-10.832-16.033-5.691-24.333 5.141-8.299 16.037-10.847 24.333-5.691l90.846 56.358c8.303 5.145 10.851 16.033 5.702 24.333-5.141 8.292-16.041 10.84-24.333 5.699l-90.857-56.366z"/></g><path d="M236.393 307.797l40.718 31.023c.116-6.96-2.687-11.831-7.427-14.769l-36.639-23.625c1.197 1.74 1.5 6.114 3.348 7.371z" fill="#edac80"/><path d="M239.054 262.971c-7.117-5.078-31.341-18.716-26.26-25.822l-4.707-23.307c5.078-7.113 55.221 27.667 59.236 30.503l90.958 62.121c10.219 7.311 11.88 17.201 6.791 24.321-5.074 7.113-14.971 8.763-22.076 3.682l-103.942-71.498z" fill="#fbbf96"/><path d="M341.907 327.165l6.361 4.524c4.505 3.207 10.967 1.893 14.421-2.945 3.461-4.834 2.604-11.36-1.908-14.567l-6.35-4.524s-3.311 1.381-7.409 7.248c-5.092 7.266-4.602 7.917-5.115 10.264zm-48.579-32.954a1.144 1.144 0 0 1-.266-1.594l11.577-16.209c.374-.52 1.074-.651 1.598-.269.509.359.632 1.081.262 1.598l-11.566 16.217a1.16 1.16 0 0 1-1.605.257zm-1.598-7.495a.991.991 0 0 1-.236-1.399l5.717-8.026a1.01 1.01 0 0 1 1.407-.236c.471.333.558.965.236 1.414l-5.706 8.019a1.01 1.01 0 0 1-1.418.228z" fill="#fdd6b2"/><path d="M180.012 344.493c-7.719-3.412-10.069-14.686-6.08-21.163 3.981-6.481 12.864-8.239 19.85-3.94l96.717 58.502c6.978 4.288 9.407 13.021 5.422 19.498-3.989 6.469-12.576 7.562-18.234 4.591l-98.101-57.739" fill="#fbbf96"/><path d="M201.213 324.257l45.29 30.241c5.343 3.173 43.311 23.861 39.315 21.414l-98.139-61.099c1.029 1.411 11.978 8.389 13.534 9.444z" fill="#edac80"/><path d="M275.079 395.889l5.788 3.543c4.108 2.514 9.62.988 12.344-3.405 2.717-4.4 1.59-10.005-2.518-12.527l-5.781-3.536s-2.784 1.392-5.994 6.709c-3.988 6.616-3.528 7.136-3.839 9.216zm-41.934-23.763a.974.974 0 0 1-.303-1.369l9.302-14.604a1 1 0 0 1 1.373-.307c.46.299.591.917.299 1.369l-9.313 14.604a.965.965 0 0 1-1.358.307zm-1.728-6.433a.866.866 0 0 1-.273-1.212l4.599-7.214a.875.875 0 0 1 1.212-.273.871.871 0 0 1 .269 1.212l-4.599 7.222a.867.867 0 0 1-1.208.265z" fill="#fdd6b2"/><path d="M221.344 295.681c-9.343-4.561-11.723-18.548-6.507-26.338 5.205-7.787 16.224-9.545 24.613-3.933l116.384 76.508c8.393 5.605 10.978 16.464 5.766 24.258-5.205 7.779-15.828 8.737-22.656 4.804l-118.116-75.628" fill="#fbbf96"/><path d="M248.386 271.745l54.349 39.333c6.447 4.157 52.224 31.393 47.423 28.187l-118.004-79.767c1.208 1.782 14.353 10.882 16.232 12.247z" fill="#edac80"/><path d="M336.018 363.37l6.956 4.625c4.935 3.289 11.805 1.665 15.356-3.618 3.543-5.291 2.417-12.243-2.529-15.528l-6.937-4.632s-3.495 1.579-7.701 7.989c-5.22 7.953-4.67 8.616-5.145 11.164zm-50.533-31.199a1.228 1.228 0 0 1-.326-1.71l12.138-17.545a1.22 1.22 0 0 1 1.706-.314c.558.393.7 1.156.311 1.703l-12.138 17.553a1.215 1.215 0 0 1-1.691.313zm-1.837-8.004a1.074 1.074 0 0 1-.269-1.508l5.987-8.673c.348-.49 1.029-.614 1.504-.281.505.352.61 1.018.284 1.515l-6.002 8.677a1.08 1.08 0 0 1-1.504.27z" fill="#fdd6b2"/><path d="M203.103 320.407c-8.819-4.486-10.881-17.852-5.796-25.186 5.078-7.33 15.599-8.842 23.506-3.368l109.682 74.648c7.914 5.459 10.211 15.85 5.13 23.191-5.078 7.338-15.207 8.075-21.657 4.224L202.62 320.093" fill="#fbbf96"/><path d="M229.231 298.027l51.169 38.286c6.069 4.056 49.26 30.686 44.736 27.566l-111.183-77.776c1.12 1.721 13.509 10.592 15.278 11.924z" fill="#edac80"/><path d="M311.303 386.625l6.556 4.516c4.647 3.207 11.214 1.762 14.675-3.207 3.457-4.991 2.492-11.633-2.163-14.836l-6.548-4.528s-3.349 1.459-7.446 7.498c-5.096 7.496-4.587 8.136-5.074 10.557zm-47.659-30.492a1.162 1.162 0 0 1-.284-1.631l11.831-16.531a1.148 1.148 0 0 1 1.624-.262 1.15 1.15 0 0 1 .269 1.624l-11.824 16.531c-.381.527-1.103.655-1.616.269zm-1.627-7.652a1.014 1.014 0 0 1-.236-1.433l5.841-8.168a1.038 1.038 0 0 1 1.437-.247c.471.341.561.98.243 1.448l-5.845 8.168c-.333.468-.98.577-1.44.232z" fill="#fdd6b2"/><path d="M248.632 260.011c-3.936-1.205-6.297-4.935-5.362-9.018.561-2.477-3.218-3.693-3.794-1.19-1.411 6.166 1.848 12.135 7.97 13.994 2.447.745 3.637-3.041 1.186-3.786zm-18.181 33.279c-6.541-2.69-9.489-9.235-7.281-15.932.804-2.432-3.087-3.203-3.88-.801-2.728 8.277 1.355 16.988 9.403 20.28 2.342.966 4.138-2.581 1.758-3.547zm-21.878 22.559c-4.655-1.833-7.094-6.615-5.575-11.446.76-2.417-2.919-3.895-3.689-1.448-2.17 6.87 1.044 13.931 7.813 16.583 2.379.944 3.838-2.757 1.451-3.689zm-23.184 25.134c-3.398-1.456-5.366-4.999-4.093-8.629.834-2.38-2.713-4.183-3.555-1.774-1.949 5.583.296 11.57 5.871 13.957 2.346 1.015 4.135-2.533 1.777-3.554z" fill="#f5b78c"/><path d="M96.35 278.421l-78.083-60.77c-7.255-5.658-6.155-19.191 2.462-30.26l54.14-69.574c8.61-11.068 21.47-15.461 28.725-9.811l78.091 60.774c7.259 5.646-78.072 115.287-85.335 109.641z" fill="#ebf3f6"/><path d="M181.352 211.806l28.58-19.547s3.633-4.412 17.743-5.47c22.278-1.665 66.495-11.854 66.495-11.854 27.24 8.09 24.838 32.25 24.838 32.25l-71.299 13.642s-32.826-2.552-41.002 2.563c-19.876 12.396-29.732-8.06-29.732-8.06l4.377-3.524z" fill="#f1a977"/><path d="M196.117 201.643l-19.061 12.232s4.296 4.034 7.947 3.499c4.042-.599 12.569-9.92 11.114-15.731z" fill="#fdd6b2"/><path d="M184.256 219.926l34.17-9.077 32.194-3.977-22.87-1.212s-9.373-.632-16.381 3.098c-5.423 2.88-27.113 11.168-27.113 11.168z" fill="#edac80"/><path d="M216.135 197.67c.61-.135.969-.745.834-1.351l-1.265-5.56a1.117 1.117 0 0 0-1.355-.834 1.13 1.13 0 0 0-.842 1.358l1.268 5.564c.14.613.747.991 1.36.823zm3.529-3.645c.614-.153.98-.752.827-1.366l-.591-3.005c-.135-.606-.752-.973-1.355-.834a1.137 1.137 0 0 0-.838 1.366l.58 3.001c.157.614.767.98 1.377.838z" fill="#fdd6b2"/><path d="M387.108 278.421l78.083-60.766c7.255-5.658 6.155-19.191-2.458-30.26l-54.14-69.574c-8.614-11.068-21.47-15.461-28.729-9.811l-78.083 60.774c-7.263 5.642 78.071 115.283 85.327 109.637z" fill="#ebf3f6"/><path d="M174.07 156.847L69.694 69.088C32.58 106.068 7.701 155.283 1.527 210.163L80.74 276.77c7.884 6.137 101.222-113.798 93.33-119.923z" fill="#5399aa"/><path d="M397.974 274.275l74.547-63.026c-5.934-55.03-30.686-104.414-67.718-141.573l-100.171 84.676c-7.884 6.125 85.454 126.059 93.342 119.923z" fill="#37848c"/></svg>