<svg xmlns="http://www.w3.org/2000/svg" viewBox="0 0 505 505"><circle cx="252.5" cy="252.5" r="252.5" fill="#ffd05b"/><path d="M408.9 286.1c21.8 21.8 20.7 31.2 14.2 37.7s-15.9 7.6-37.7-14.2c-21.8-21.8-47.8-58.4-41.3-64.9 6.4-6.5 43 19.5 64.8 41.4z" fill="#f1543f"/><path d="M345.5 218.1l-28.2 28.2 18.1 18.1c1.1 1.1 3 1.1 4.1 0l24.1-24.1c1.1-1.1 1.1-3 0-4.1l-18.1-18.1z" fill="#fff"/><circle cx="280" cy="179.4" r="83" fill="#324a5e"/><circle cx="280" cy="179.4" r="67.3" fill="#84dbff"/><path d="M303.1 139.3l-63.2 46.6 21.9 8.4-30.7 91.8-62.7-21.5-1.1-.4-.4-.1c-4.5-1.3-9.3 1.3-10.6 5.8l-30.1 103.9 43.3-88.5 64.9 27.9c6 2.6 12.9-.2 15.5-6.1l.4-1 43.7-99.5 24.5 9.5-15.4-76.8z" fill="#ff7058"/><path fill="#fff" d="M408.4 372.1H132.7V96.3h-15.8v22.8H96.1v15.8h20.8v39.8H96.1v15.7h20.8v39.8H96.1V246h20.8v39.8H96.1v15.8h20.8v39.8H96.1v15.8h20.8v30.6h30.6v20.9h15.8v-20.9h39.8v20.9h15.8v-20.9h39.8v20.9h15.8v-20.9h39.8v20.9h15.8v-20.9h39.8v20.9h15.8v-20.9h22.7z"/></svg>