<svg xmlns="http://www.w3.org/2000/svg" viewBox="0 0 508 508"><circle cx="254" cy="254" r="254" fill="#f1d889"/><path d="M36.8 386C81.6 459.2 162 508 254 508s172.4-48.8 217.2-122H36.8z" fill="#f1d889"/><path d="M366.4 235.2l2.8 10.4c4.8 5.2 13.2 3.2 14.8 2.8 1.6-1.6-.4-2.4-.4-2.4-6.8.4-7.2-4.8-7.2-4.8 4-2.4 8.4 1.6 10.4 4 .8.8 2 .8 2.8 0s.8-2 .4-2.8c-7.2-11.2-23.6-7.2-23.6-7.2zM128 310.8l10.8 1.2c5.6 3.6 5.6 12.4 5.2 14.4-1.6 2-2.4 0-2.4 0-.8-6.8-6-6.4-6-6.4-1.6 4.4 2.8 8 5.6 9.6 1.2.4 1.2 2 .8 2.8s-1.6 1.2-2.4.8c-12.8-5.6-11.6-22.4-11.6-22.4z" fill="#ffd05b"/><path fill="#e6e9ee" d="M175.6 137.6H234v77.6h-58.4z"/><path fill="#f1543f" d="M213.6 140.4H196l3.6 7.6H210z"/><path fill="#ff7058" d="M216.4 196.4l-11.6 18.8-11.6-18.8 6.4-48.4H210z"/><path d="M204.8 318.4C202.4 334.8 194 340 194 340c-27.2 6.8-43.2-15.6-43.2-15.6 17.6-45.6 2-113.6 2-113.6-7.6 18-10 102.8-10 102.8h-17.2c-12-62.8-4.8-114 2.4-142.8 3.2-14 14-25.2 27.6-29.2 20.4-6 29.2-17.6 29.2-17.6-2.8 36 15.6 76.8 15.6 76.8 2 3.6 3.2 8.4 4.4 14.4 0-.4-12 62 0 103.2z" fill="#2b3b4e"/><path d="M161.6 160l13.6-10.8-14.8-3.2c14-4.8 24.4-21.6 24.4-21.6-2.8 36 15.6 76.8 15.6 76.8 1.6 3.6 3.2 8 4.4 13.6-27.6-14.4-43.2-54.8-43.2-54.8zm53.6 179.2s-8.4-5.2-10.8-21.6c-2 16.4-10.4 21.6-10.4 21.6-15.2 3.6-26.8-1.6-34.4-6.8l8 131.2h23.6L202 340.8c0-1.6 1.2-2.4 2.8-2.4 1.6 0 2.8 1.2 2.8 2.4L218.4 464H242l8-131.2c-8 5.2-19.6 10.4-34.8 6.4z" fill="#324a5e"/><path d="M215.2 339.2s-8.4-5.2-10.8-21.6V338c1.6 0 2.8 1.2 2.8 2.4L218 463.6h23.6l8-131.2c-7.6 5.6-19.2 10.8-34.4 6.8z" fill="#2b3b4e"/><path d="M243.2 468.8c.8-1.6 1.2-3.6 1.2-5.2 0-8-6.4-14.4-14.4-14.4s-14.4 6.4-14.4 14.4c0 2 .4 3.6 1.2 5.2h26.4z" fill="#324a5e"/><path d="M204.8 140.4c-.4 0-.4 0 0 0-19.2-9.2-17.2-21.2-17.2-21.2v-.4c4.8 5.6 10.4 9.6 16.8 9.6s12-3.6 16.8-9.6v.8c.8 1.6.8 12.4-16.4 20.8z" fill="#f9b54c"/><path d="M204.8 140.4c-.4 0-.4 0 0 0z" fill="#f1543f"/><path d="M221.6 118.8s2 12-16.8 21.2c0 0 14 1.2 18.4 14.4 0 .8 7.6-28.4-1.6-35.6zm-34 0s-2 12 16.8 21.2c0 0-14 1.2-18.4 14.4 0 .8-7.6-28.4 1.6-35.6z" fill="#fff"/><path d="M233.2 94c.8-4 1.2-8 1.2-12 0-22-13.2-30.4-30-30.4-16.4 0-30 8.8-30 30.4 0 4 .4 8 1.2 12-2.4 1.2-3.2 5.2-1.6 8.8 1.2 2.8 3.6 4.4 5.6 4.4 5.2 12.8 14.4 23.2 24.8 23.2s19.2-10.4 24.8-23.2c2 0 4.4-2 5.6-4.4 1.6-3.6 1.2-7.6-1.6-8.8z" fill="#ffd05b"/><path d="M204.4 39.2s13.2.4 24.8 11.2c25.2 24-1.2 59.2-1.2 59.2s3.6-8.4 2.4-17.6c-.4-3.2-.8-6.8-.4-10 .4-6-1.2-15.6-15.6-13.2 0 0-8.4 6-28.4 1.2 0 0-12.8 19.6-5.6 36.8 0 0-21.2-32.4 1.2-52.8l-7.6 1.6s8.4-15.6 25.2-10c0 0-1.6-2.8-6.8-4 0 0 7.6-3.2 12 2 0-.4 2.8-2.4 0-4.4z" fill="#324a5e"/><path d="M191.2 468.8c.8-1.6 1.2-3.6 1.2-5.2 0-8-6.4-14.4-14.4-14.4s-14.4 6.4-14.4 14.4c0 2 .4 3.6 1.2 5.2h26.4z" fill="#2b3b4e"/><path d="M258.8 215.2c50 48 114 34.8 114 34.8 0-13.6-4.8-16.4-4.8-16.4-24 4.4-45.6-11.6-58.4-24.8-7.2-7.2-12.4-16-16-25.6-6-16.4-15.6-27.2-24.8-33.6-4.4-3.6-9.2-6.4-14.8-8-.4 0-.8-.4-1.6-.4-1.2-.4-2.4-.8-3.2-1.2-16.8-6-24.4-16-24.4-16 2.8 36-15.6 76.8-15.6 76.8-2 3.6-3.2 8.4-4.4 14.4 0 0-12 62 0 103.6 2 13.2 7.6 19.2 10 21.2l.8.8c27.2 6.8 43.2-15.6 43.2-15.6-12.4-32.4-8-76.4-4.4-98.8l4.4-11.2z" fill="#324a5e"/><path d="M248 160l-13.6-10.8 14.8-3.2c-14-4.8-24.4-21.6-24.4-21.6 2.8 36-15.6 76.8-15.6 76.8-1.6 3.6-3.2 8-4.4 13.6C232.4 200.4 248 160 248 160z" fill="#2b3b4e"/><path d="M421.6 358.8c0-21.6-17.6-38.8-38.8-38.8-8.4 0-15.2-6.8-15.2-15.2s6.8-15.2 15.2-15.2c4.4 0 8.4 1.6 11.2 4.8 4.4 4.8 12 4.8 16.8.4s4.8-12 .4-16.8-10.4-8.4-16.4-10.4v-6.8c0-6.4-5.2-11.6-11.6-11.6s-11.6 5.2-11.6 11.6v6.8c-15.6 5.2-27.2 19.6-27.2 37.2 0 21.6 17.6 38.8 38.8 38.8 8.4 0 15.2 6.8 15.2 15.2s-7.2 15.2-15.6 15.2c-4.4 0-8.4-1.6-11.2-4.8-4.4-4.8-12-4.8-16.8-.4s-4.8 12-.4 16.8 10.4 8.4 16.4 10.4v6.8c0 6.4 5.2 11.6 11.6 11.6s11.6-5.2 11.6-11.6V396c16.4-5.2 27.6-20 27.6-37.2z" fill="#fff"/></svg>