<svg xmlns="http://www.w3.org/2000/svg" viewBox="0 0 360.871 360.871"><circle cx="178.462" cy="180.436" r="178.462" fill="#eb7f43"/><path d="M75.471 243.722h36.411v14.843H75.471zm47.951-29.662h36.411v44.505h-36.411zm47.926-29.661h36.411v74.166h-36.411zm47.95-29.662h36.409v103.828h-36.409zm47.951-29.686h36.411v133.514h-36.411zm-237.9 125.076l-.288-1.794a148.498 148.498 0 0 0 11.793-2.405l.436 1.77a151.026 151.026 0 0 1-11.941 2.429zm23.645-5.817l-.574-1.726a164.676 164.676 0 0 0 11.286-4.226l.699 1.681a164.845 164.845 0 0 1-11.411 4.271zm22.494-9.346l-.812-1.627a203.224 203.224 0 0 0 10.619-5.716l.908 1.578a201.135 201.135 0 0 1-10.715 5.765zm21.088-12.123l-.99-1.526a279.228 279.228 0 0 0 9.996-6.809l1.056 1.482a288.335 288.335 0 0 1-10.062 6.853zm19.835-14.098l-1.108-1.442a441.932 441.932 0 0 0 9.482-7.505l1.15 1.413a431.878 431.878 0 0 1-9.524 7.534zm18.855-15.298l-1.179-1.386a871.992 871.992 0 0 0 9.182-7.904l1.194 1.374a854.26 854.26 0 0 1-9.197 7.916zm18.324-15.929l-1.206-1.366 9.095-8.039 1.204 1.366-9.093 8.039zm18.213-16.046l-1.194-1.376a973.346 973.346 0 0 1 9.216-7.934l1.179 1.388a968.265 968.265 0 0 0-9.201 7.922zm18.531-15.673l-1.15-1.413a443.322 443.322 0 0 1 9.548-7.557l1.108 1.442a448.008 448.008 0 0 0-9.506 7.528zm19.239-14.752l-1.061-1.482a295.847 295.847 0 0 1 10.055-6.88l.997 1.524a286.39 286.39 0 0 0-9.991 6.838zm20.271-13.196l-.916-1.573a211.656 211.656 0 0 1 10.681-5.841l.827 1.622a212.793 212.793 0 0 0-10.592 5.792zm21.491-10.915l-.721-1.671a175.627 175.627 0 0 1 11.35-4.436l.601 1.718a174.334 174.334 0 0 0-11.23 4.389z" fill="#fff"/><path fill="#242d3c" d="M257.841 66.378l4.099 35.596 98.931-61.711z"/><path d="M267.436 72.825l35.077 23.593 58.358-56.155zm-30.961-20.82l21.366 14.373 103.03-26.115z" fill="#f2f2f2"/><path fill="#3e4959" d="M261.94 101.974l5.496-29.149 19.85 13.336z"/></svg>