<svg xmlns="http://www.w3.org/2000/svg" viewBox="0 0 356.923 356.923"><circle cx="178.462" cy="178.462" r="178.462" fill="#eb7f43"/><path fill="#ffb733" d="M71.705 249.526h45.068v7.434H71.705z"/><path fill="#ffd55c" d="M71.705 248.985h45.068v6.658H71.705z"/><path fill="#ffb733" d="M71.705 241.551h45.068v7.434H71.705z"/><path fill="#ffd55c" d="M71.705 241.009h45.068v6.663H71.705z"/><path fill="#ffb733" d="M240.172 249.526h45.066v7.434h-45.066z"/><path fill="#ffd55c" d="M240.172 248.985h45.066v6.658h-45.066z"/><path fill="#ffb733" d="M240.172 241.551h45.066v7.434h-45.066z"/><path fill="#ffd55c" d="M240.172 241.009h45.066v6.663h-45.066z"/><path fill="#ffb733" d="M240.172 233.575h45.066v7.434h-45.066z"/><path fill="#ffd55c" d="M240.172 233.034h45.066v6.661h-45.066z"/><path fill="#ffb733" d="M240.172 225.6h45.066v7.434h-45.066z"/><path fill="#ffd55c" d="M240.172 225.058h45.066v6.663h-45.066z"/><path fill="#ffb733" d="M240.172 217.625h45.066v7.434h-45.066z"/><path fill="#ffd55c" d="M240.172 217.108h45.066v6.661h-45.066z"/><path fill="#ffb733" d="M240.172 209.649h45.066v7.434h-45.066z"/><path fill="#ffd55c" d="M240.172 209.132h45.066v6.663h-45.066z"/><path fill="#ffb733" d="M240.172 201.698h45.066v7.434h-45.066z"/><path fill="#ffd55c" d="M240.172 201.157h45.066v6.661h-45.066z"/><path fill="#ffb733" d="M240.172 193.723h45.066v7.434h-45.066z"/><path fill="#ffd55c" d="M240.172 193.182h45.066v6.663h-45.066z"/><path fill="#ffb733" d="M240.172 185.748h45.066v7.434h-45.066z"/><path fill="#ffd55c" d="M240.172 185.206h45.066v6.661h-45.066z"/><path fill="#ffb733" d="M240.172 177.772h45.066v7.434h-45.066z"/><path fill="#ffd55c" d="M240.172 177.231h45.066v6.661h-45.066z"/><path fill="#ffb733" d="M240.172 169.797h45.066v7.434h-45.066z"/><path fill="#ffd55c" d="M240.172 169.28h45.066v6.658h-45.066z"/><path fill="#ffb733" d="M240.172 161.822h45.066v7.434h-45.066z"/><path fill="#ffd55c" d="M240.172 161.305h45.066v6.666h-45.066z"/><path fill="#ffb733" d="M240.172 153.846h45.066v7.434h-45.066z"/><path fill="#ffd55c" d="M240.172 153.329h45.066v6.658h-45.066z"/><path fill="#ffb733" d="M240.172 145.895h45.066v7.434h-45.066z"/><path fill="#ffd55c" d="M240.172 145.354h45.066v6.663h-45.066z"/><path fill="#ffb733" d="M127.852 249.526h45.071v7.434h-45.071z"/><path fill="#ffd55c" d="M127.852 248.985h45.071v6.658h-45.071z"/><path fill="#ffb733" d="M127.852 241.551h45.071v7.434h-45.071z"/><path fill="#ffd55c" d="M127.852 241.009h45.071v6.663h-45.071z"/><path fill="#ffb733" d="M127.852 233.575h45.071v7.434h-45.071z"/><path fill="#ffd55c" d="M127.852 233.034h45.071v6.666h-45.071z"/><path fill="#ffb733" d="M127.852 225.6h45.071v7.434h-45.071z"/><path fill="#ffd55c" d="M127.852 225.083h45.071v6.663h-45.071z"/><path fill="#ffb733" d="M127.852 217.625h45.071v7.434h-45.071z"/><path fill="#ffd55c" d="M127.852 217.108h45.071v6.663h-45.071z"/><path fill="#ffb733" d="M127.852 209.674h45.071v7.434h-45.071z"/><path fill="#ffd55c" d="M127.852 209.132h45.071v6.663h-45.071z"/><path fill="#ffb733" d="M184.025 249.526h45.066v7.434h-45.066z"/><path fill="#ffd55c" d="M184.025 248.985h45.066v6.658h-45.066z"/><path fill="#ffb733" d="M184.025 241.551h45.066v7.434h-45.066z"/><path fill="#ffd55c" d="M184.025 241.009h45.066v6.663h-45.066z"/><path fill="#ffb733" d="M184.025 233.575h45.066v7.434h-45.066z"/><path fill="#ffd55c" d="M184.025 233.034h45.066v6.666h-45.066z"/><path fill="#ffb733" d="M184.025 225.6h45.066v7.434h-45.066z"/><path fill="#ffd55c" d="M184.025 225.083h45.066v6.663h-45.066z"/><path fill="#ffb733" d="M184.025 217.625h45.066v7.434h-45.066z"/><path fill="#ffd55c" d="M184.025 217.108h45.066v6.663h-45.066z"/><path fill="#ffb733" d="M184.025 209.674h45.066v7.434h-45.066z"/><path fill="#ffd55c" d="M184.025 209.132h45.066v6.663h-45.066z"/><path fill="#ffb733" d="M184.025 201.698h45.066v7.434h-45.066z"/><path fill="#ffd55c" d="M184.025 201.157h45.066v6.663h-45.066z"/><path fill="#ffb733" d="M184.025 193.723h45.066v7.434h-45.066z"/><path fill="#ffd55c" d="M184.025 193.182h45.066v6.661h-45.066z"/><path fill="#ffb733" d="M184.025 185.748h45.066v7.434h-45.066z"/><path fill="#ffd55c" d="M184.025 185.231h45.066v6.658h-45.066z"/><path fill="#ffb733" d="M184.025 177.772h45.066v7.434h-45.066z"/><path fill="#ffd55c" d="M184.025 177.255h45.066v6.661h-45.066z"/><g fill="#fff"><path d="M71.692 215.749a5.237 5.237 0 0 1-5.145-4.278 5.248 5.248 0 0 1 4.192-6.105c44.455-8.256 92.615-29.952 135.616-61.1 27.404-19.847 51.37-42.326 71.23-66.821a5.223 5.223 0 0 1 4.071-1.937c1.194 0 2.366.416 3.296 1.172a5.19 5.19 0 0 1 1.905 3.522 5.184 5.184 0 0 1-1.14 3.842c-20.441 25.204-45.076 48.32-73.221 68.704-44.234 32.042-93.898 54.385-139.845 62.919a5.654 5.654 0 0 1-.959.082z"/><path d="M285.221 120.187a5.221 5.221 0 0 1-5.201-4.692l-3.03-28.999-28.997 3.025a5.222 5.222 0 0 1-5.753-4.659 5.192 5.192 0 0 1 1.14-3.845 5.196 5.196 0 0 1 3.527-1.908l39.412-4.118 4.118 39.417a5.246 5.246 0 0 1-4.665 5.753 6.482 6.482 0 0 1-.551.026z"/></g></svg>