<svg xmlns="http://www.w3.org/2000/svg" viewBox="0 0 508 508"><circle cx="254" cy="254" r="254" fill="#a4d3ca"/><path d="M328.4 354c0 2.8-.4 6-2.4 7.6-4.8 4.8-12.8 5.2-18 .4l-2.8-2.4c3.6 3.2 3.6 8.8.4 12.4l-8.8 8.8c-3.2 3.2-8.8 3.2-12 0l-5.6-5.6c3.6 3.6 3.6 10 0 13.2l-4.8 4.4c-3.6 3.2-9.2 3.2-12.8 0l-4.4-4.4c2.4 2.4 2.4 6.4 0 8.8l-4.8 4.8c-2.4 2.4-6.4 2.4-8.8 0l-11.2-6s-.4 0-.8-.4l-4-11.6c-.8-2.4 0-5.2 1.6-6.8 3.6-3.6 3.6-8.8 0-12.4l-5.2-5.2c-3.2-3.2-8-3.6-11.6-.8l-3.2 2.8 4.4-4.4c4.4-4 4.4-10.8 0-15.2l-4-4c-4.4-4.4-10.8-4.4-15.2 0l-5.2 5.2c3.6-3.6 3.6-9.6 0-13.2l-6.4-6.4c-3.6-3.6-9.2-3.6-12.8-.4l-15.6 13.6c2-2.8 1.6-6.4-.4-8.8l-4.8-4.8c-2.8-2.8-6.8-2.8-9.6 0l-.8.8c-4-3.6-7.6-6.4-10.4-9.2l37.2-86.4c10.8 0 30.4-.8 45.6-10 12.8-8 29.6-4.8 37.6 7.2L244 228c-10.4 6.8-23.6 11.2-34 14-8.4 2.4-14.4 9.6-15.2 18.4-.4 8.8-2.8 18-4.8 24-1.6 4.8.4 9.6 4.8 12.4 2.4 1.2 4.8 2 7.6 2 3.6 0 6.8-1.2 9.6-3.6 9.6-8.4 23.2-21.6 22-27.6 0 0 12.8 2 15.6-1.2 0 0 63.2 48.8 78 78.4-.4 0 .8 4.8.8 9.2z" fill="#f9b54c"/><path d="M380.8 316.8c-12.4 8-51.2 32.4-53.6 27.2-15.2-29.6-78.4-78-78.4-78-2.8 3.2-15.6 1.2-15.6 1.2 1.2 6-12.4 19.6-22 27.6-2.8 2.4-6 3.6-9.6 3.6-2.4 0-5.2-.8-7.6-2-4.4-2.4-6-7.6-4.8-12.4 2-6 4.4-15.2 4.8-24 .4-8.8 6.8-16 15.2-18.4 10.4-2.8 23.6-7.6 34-14 10-6.4 22.4-7.2 33.2-2 15.2 7.6 38.4 14 65.6 2.4l38.8 88.8zm-151.6 60c3.6-3.6 3.6-8.8 0-12.4l-5.2-5.2c-3.2-3.2-8-3.2-11.6-.8l-3.2 2.8 4.4-4.4c4-4 4-11.2 0-15.2l-4-4c-4-4-10.8-4-15.2 0l-5.2 4.8c3.6-3.6 3.6-9.6 0-13.2l-6.4-6.4c-3.6-3.6-9.2-3.6-12.8-.4l-16 14.4c2.8-2.8 2.8-6.8 0-9.6l-4.8-4.8c-2.8-2.8-6.8-2.8-9.6 0L134 328c.4 18.4 17.2 14.4 17.2 14.4-1.2 22.4 24 21.2 24 21.2-4.4 24 25.2 20 25.2 20C201.2 402 232 396 232 396l-4-12.4c-1.2-2.4-.8-5.2 1.2-6.8z" fill="#ffd05b"/><path d="M153.2 332.8l-.8 1.2c-2 2.4-5.6 2.4-7.6.4L142 332c-2.4-2-2.4-5.6-.4-7.6l.8-1.2c2-2.4 5.6-2.4 7.6-.4l2.8 2.4c2 1.6 2.4 5.2.4 7.6zm36 3.6l-1.6 1.6c-2.8 3.2-7.2 3.6-10.4.8l-3.6-3.2c-3.2-2.8-3.6-7.2-.8-10.4l1.2-1.6c2.8-3.2 7.2-3.6 10.4-.8l3.6 3.2c3.2 2.8 3.6 7.2 1.2 10.4zm24.4 14l-1.2 1.6c-2.8 3.2-7.2 3.6-10.4.8l-3.6-3.2c-3.2-2.8-3.6-7.2-.8-10.4l1.2-1.6c2.8-3.2 7.2-3.6 10.4-.8l3.6 3.2c3.2 2.8 3.6 7.6.8 10.4zm14.4 18.4l-1.2 1.2c-2 2.4-6 2.8-8.4.8l-3.2-2.4c-2.4-2-2.8-6-.8-8.4l1.2-1.2c2-2.4 6-2.8 8.4-.8l3.2 2.4c2.4 2 2.8 6 .8 8.4zm-26.4-86l4-10c1.2-3.2-.4-6.8-4-8l-7.6-2c-.8 8-2.8 16-4.8 21.6-.4 1.2-.4 2.8-.4 4 5.2 1.6 10.8-.8 12.8-5.6zm211.6 36.4l-26.4 11.6-47.6-111.2 20-10z" fill="#fff"/><path d="M508 254c0-44.4-11.2-86-31.2-122l-125.6 61.6 72.4 147.2 80.4-42c2.4-14.8 4-29.6 4-44.8z" fill="#324a5e"/><path fill="#fff" d="M168.8 219.6l-47.6 111.2-26.4-11.6 54-109.6z"/><path d="M0 254c0 15.2 1.6 30 4 44.4l80.4 42 72.4-147.2L31.2 132C11.2 168 0 209.6 0 254z" fill="#324a5e"/><g fill="#2b3b4e"><circle cx="437.6" cy="300" r="12"/><circle cx="468" cy="283.6" r="12"/><circle cx="68" cy="304" r="12"/><circle cx="37.6" cy="287.6" r="12"/></g></svg>