<svg xmlns="http://www.w3.org/2000/svg" viewBox="0 0 508 508"><path d="M508 254c0 140.4-113.6 254-254 254S0 394.4 0 254 113.6 0 254 0c110.8 0 204.8 70.8 239.6 169.6 7.6 21.2 12 43.6 13.6 66.8.8 6 .8 11.6.8 17.6z" fill="#90dfaa"/><path fill="#e6e9ee" d="M301.6 183.6l-4 100.8h-87.2l-4-100.8 47.6-23.2z"/><ellipse cx="254" cy="172.4" rx="30.4" ry="30.8" fill="#f9b54c"/><path fill="#f1543f" d="M266.8 203.2h-25.6L246 218h16z"/><path fill="#ff7058" d="M271.2 284.4h-34.4L246 218h16z"/><path d="M333.2 256l.8 13.2c0 2.8 2.8 5.2 5.6 5.2h.4c.4 3.6 1.2 6.8 1.6 10h-68c6.4-20.4 10.4-39.2 12.8-55.6.4.8 8.8-31.2 4-50.8l59.2 28.8.4 2.8c-5.6 4.4-9.2 10.4-10 18.4s-1.2 15.6-1.2 22.4h-.4c-3.2 0-5.6 2.4-5.2 5.6zm-158.4 0c0-3.2-2.4-5.2-5.2-5.2h-.4c0-6.8-.4-14.4-1.2-22.4s-4.8-14-10-18.4l.4-2.8 59.2-29.2c-4.4 18.8 3.6 49.6 4 50.4 2.4 16.4 6.4 35.2 12.8 55.6h-68c.8-3.2 1.2-6.4 1.6-10h.4c2.8 0 5.6-2.4 5.6-5.2l.8-12.8z" fill="#2b3b4e"/><path d="M283.6 166s4 21.2-29.6 37.2c0 0 24.8 2 32.4 25.2 0 1.2 13.6-50-2.8-62.4zm-59.2 0s-4 21.2 29.6 37.2c0 0-24.8 2-32.4 25.2 0 1.2-13.6-50 2.8-62.4z" fill="#fff"/><path d="M303.6 109.2c0 32.4-22 72.4-49.6 72.4-27.2 0-49.6-40-49.6-72.4S226.4 64 254 64c27.2 0 49.6 12.8 49.6 45.2z" fill="#ffd05b"/><path d="M236.8 57.2s40-16 60.4 20.4c22 38.8-5.6 80.8-11.2 84.4 0 0 1.6-6.8 5.6-19.6 0 0 9.6-28.8-19.6-33.2 0 0-28.4-4-30.8-10 0 0 2 10.4 14.8 12.4 0 0-29.2-.8-38.4-11.2 0 0-12.4 41.2 5.6 63.6 0 0-31.6-25.2-27.6-64.4.4.4-1.2-53.2 41.2-42.4z" fill="#324a5e"/><path d="M2 284.4C16.8 410.4 124 508 254 508s237.2-97.6 252-223.6H2z" fill="#2c9984"/><path d="M168.4 274c-2.8 0-5.2-2.4-5.2-5.2l.8-13.2c0-2.8 2.8-5.2 6-5.2s5.2 2.4 5.2 5.2l-1.2 13.2c0 3.2-2.8 5.2-5.6 5.2zM72 274c-3.2 0-5.6-2.4-6-5.2l-.8-13.2c0-2.8 2-5.2 5.2-5.2h.4c0 8.8.4 16.8 1.2 23.6zm81.6 67.2c.8-2.8 1.2-5.6 1.2-8.8 0-19.2-15.6-34.8-34.4-34.8-19.2 0-34.4 15.6-34.4 34.8 0 3.2.4 6 1.2 8.8h66.4z" fill="#ffd05b"/><path d="M168 228c-2.4-24-32.4-30.4-47.6-30.4h-.8c-15.2 0-44.8 6.4-47.6 30.4-4 37.2.8 61.6 8.8 77.6 4.8 9.6 14.8 16 26 16h26c10.8 0 20.8-6 26-16 8.4-16 13.2-40.4 9.2-77.6zM83.2 394.8l1.2-1.2c-.4.8-.4 1.6-.8 2 0 .4 0 0-.4-.8z" fill="#324a5e"/><path d="M161.6 338.8c-39.2 22.8-74.8 4.8-82.4 0 1.2-6 3.6-10.8 7.6-13.6 0 0 31.6 27.6 67.2 0 3.6 2.8 6 7.6 7.6 13.6z" fill="#fff"/><path d="M156 393.6l1.2 1.2c0 .8-.4 1.2-.4 1.2-.4-.8-.4-1.6-.8-2.4z" fill="#324a5e"/><path d="M236.8 396c-5.2-16-16.4-29.2-31.6-36.4l-43.6-21.2c-39.2 22.8-74.8 4.8-82.4 0l-44 21.2c-3.2 1.6-6.4 3.6-9.6 6 40 82 123.6 139.6 220.4 142.4v-52c0-20.8-3.2-40.8-9.2-60z" fill="#e6e9ee"/><path d="M181.6 383.6H58.4c-7.2 0-13.6 2.4-18.8 6.8 38 59.2 99.6 102 171.6 114v-90.8c.4-16.4-13.2-30-29.6-30z" fill="#324a5e"/><path d="M436 274c-2.8 0-5.2-2.4-5.2-5.2l.8-13.2c0-2.8 2.8-5.2 6-5.2s5.2 2.4 5.2 5.2l-.8 13.2c-.4 3.2-2.8 5.2-6 5.2zm-96 0c-.4 0-.4 0 0 0-3.2 0-5.6-2.4-6-5.2l-.8-13.2c0-2.8 2-5.2 5.2-5.2h.4c-.4 8.8 0 16.8 1.2 23.6zm81.6 51.2s0-.4 0 0c-35.6 27.2-67.6 0-67.6 0 .8-3.2 2-6.4 3.6-9.6 4.8 3.6 10.8 5.6 17.2 5.6h26c6.4 0 12.4-2 17.2-5.6 2 2.8 2.8 6 3.6 9.6z" fill="#ffd05b"/><path d="M435.6 228c-2.4-24-32.4-30.4-47.6-30.4h-.8c-15.2 0-44.8 6.4-47.6 30.4-4 37.2.8 61.6 8.8 77.6 4.8 9.6 14.8 16 26 16h26c10.8 0 20.8-6 26-16 8.4-16 13.2-40.4 9.2-77.6zm-70 166.8l1.2-1.2c-.4.8-.4 1.6-.8 2 0 .4-.4 0-.4-.8z" fill="#324a5e"/><path d="M429.2 338.8c-39.2 22.8-74.8 4.8-82.4 0 1.2-6 3.6-10.8 7.6-13.6 0 0 31.6 27.6 67.2 0 3.6 2.8 6 7.6 7.6 13.6z" fill="#fff"/><path d="M423.6 393.6l1.2 1.2c0 .8-.4 1.2-.4 1.2-.4-.8-.4-1.6-.8-2.4z" fill="#324a5e"/><path d="M482.4 365.2c-2.8-2-6-4-9.6-5.6l-43.6-21.2c-39.2 22.8-74.8 4.8-82.4 0l-43.6 21.2c-15.2 7.2-26.4 20.4-31.6 36.4-6.4 19.2-9.2 39.6-9.2 60v52c96.4-3.2 179.6-60.4 220-142.8z" fill="#e6e9ee"/><path d="M326.4 383.6c-16.4 0-30 13.2-30 30v90.8c72-12 134-54.8 171.6-114-5.2-4-11.6-6.8-18.8-6.8H326.4z" fill="#324a5e"/></svg>