<svg xmlns="http://www.w3.org/2000/svg" viewBox="0 0 496.2 496.2"><path d="M496.2 248.1C496.2 111.1 385.1 0 248.1 0S0 111.1 0 248.1s111.1 248.1 248.1 248.1 248.1-111.1 248.1-248.1z" fill="#32bea6"/><path d="M299.8 145.8c28.5-28.5 28.5-74.8 0-103.3S225 14 196.5 42.5s-28.5 74.8 0 103.3c28.5 28.6 74.7 28.6 103.3 0z" fill="#efb533"/><path d="M299.8 145.8c28.5-28.5 28.5-74.8 0-103.3L196.4 145.8c28.6 28.6 74.8 28.6 103.4 0z" fill="#e5aa17"/><path d="M292.9 139c24.7-24.7 24.7-64.8 0-89.6-24.7-24.7-64.8-24.7-89.6 0-24.7 24.7-24.7 64.8 0 89.6 24.7 24.7 64.9 24.7 89.6 0z" fill="#f4de7f"/><path d="M292.9 139c24.7-24.7 24.7-64.8 0-89.6L203.3 139c24.7 24.7 64.9 24.7 89.6 0z" fill="#f2d55a"/><path d="M272.4 72.3c0 4.7-5.3 8-5.6 7.6-3.9-4.6-10.7-8-17.5-8-6.9 0-11.2 3.1-11.2 7.8 0 5.4 5.7 6.8 13.7 8.6 9.5 2.1 22 5.9 22 19.5 0 10.5-7.2 17.7-19.4 19.6v4c0 4.8-1.9 7-6 7h-.5c-4.3 0-5.9-2.2-5.9-7v-3.8c-12.5-1.3-19.7-7-19.7-12.8 0-4.5 5-7.7 5.4-7.2 3.9 4.8 11.6 8.7 19.7 8.7 7.3 0 11.6-3.1 11.6-7.8 0-5.7-6.4-7.2-14-9-9.1-2-21.1-5.6-21.1-19.3 0-9.9 7-17.1 18.2-19.1v-4c0-4.8 1.8-7 5.9-7h.6c4.2 0 5.9 2.2 5.9 7v3.5c11.6 1.2 17.9 6.4 17.9 11.7z" fill="#e5aa17"/><g fill="#f2d55a"><path d="M259 108.3c0-5.7-6.4-7.2-14-9-.6-.1-1.1-.2-1.7-.4l-11.9 11.9c4.2 3.1 10 5.3 16 5.3 7.4 0 11.6-3.1 11.6-7.8z"/><path d="M292.9 49.4l-20.8 20.8c.2.7.3 1.4.3 2.1 0 4.7-5.3 8-5.6 7.6-.7-.8-1.4-1.5-2.2-2.2l-11 11c9.2 2.2 20.2 6.3 20.2 19 0 10.5-7.2 17.7-19.4 19.6v4c0 4.8-1.9 7-6 7h-.5c-4.3 0-5.9-2.2-5.9-7v-3.8c-9.5-1-15.9-4.6-18.5-8.8L203.2 139c24.7 24.7 64.8 24.7 89.6 0 24.8-24.8 24.8-64.9.1-89.6z"/></g><path d="M227.8 107.4c-.4-.4-5.4 2.8-5.4 7.2 0 1.4.4 2.8 1.2 4.1l7.9-7.9c-1.5-1.1-2.7-2.2-3.7-3.4zm24-19.2c-8-1.8-13.7-3.2-13.7-8.6 0-4.7 4.2-7.8 11.2-7.8 5.7 0 11.3 2.4 15.3 5.8l7.4-7.4c-1.4-4.5-7.5-8.6-17.5-9.6v-3.5c0-4.9-1.7-7-5.9-7h-.6c-4.1 0-5.9 2.3-5.9 7v3.8c-11.2 2.1-18.2 9.2-18.2 19.1 0 12.8 10.6 16.8 19.4 18.9l10.3-10.3c-.6-.1-1.2-.3-1.8-.4z" fill="#efb533"/><path d="M266.8 79.8c.3.4 5.6-2.9 5.6-7.6 0-.7-.1-1.4-.3-2.1l-7.4 7.4c.7.9 1.4 1.6 2.1 2.3z" fill="#e5aa17"/><path d="M308.7 221.8l-29.9-20.5s-3.8-4.6-18.6-5.7c-23.3-1.7-69.6-12.4-69.6-12.4-28.5 8.5-26 33.8-26 33.8l74.6 14.3s34.4-2.7 42.9 2.7c20.8 13 31.1-8.4 31.1-8.4l-4.5-3.8z" fill="#fbbf96"/><path d="M293.2 211.1l19.9 12.8s-4.5 4.2-8.3 3.7c-4.2-.6-13.1-10.4-11.6-16.5z" fill="#fdd6b2"/><path d="M305.7 230.3l-35.8-9.5-33.7-4.2 23.9-1.3s9.8-.7 17.1 3.2c5.8 3.1 28.5 11.8 28.5 11.8z" fill="#edac80"/><path d="M272.3 207c-.6-.1-1-.8-.9-1.4l1.3-5.8c.2-.6.8-1 1.4-.9.6.1 1 .8.9 1.4l-1.3 5.8c-.1.7-.8 1.1-1.4.9zm-3.7-3.8c-.6-.2-1-.8-.9-1.4l.6-3.1c.1-.6.8-1 1.4-.9.6.2 1 .8.9 1.4l-.6 3.1c-.1.6-.8 1-1.4.9z" fill="#fdd6b2"/><path d="M312.6 362c8.7-5.4 32.1-29 26.7-37.7-5.4-8.7-16.8-11.3-25.5-6l-67.2 41c-8.7 5.4-13 13.7-7.6 22.4s12.3 8.8 24 3.7l49.6-23.4z" fill="#fbbf96"/><path d="M285.3 339.9l-48.7 34.7c-.3-8.6 3.6-11.2 8.6-14.3l53.4-35c-1.2 1.8-11.3 13.3-13.3 14.6z" fill="#edac80"/><g fill="#f1a977"><path d="M233.6 246.2l16.7-14.1-3.6-28.1 88.8-30.3 84.5 90.1s-22.7 35.7-45.5 56.8c-22.8 21.1-63 42-63 42l-77.9-116.4z"/><path d="M331.8 311.1c8.7-5.4 11.3-16.8 6-25.5-5.4-8.7-16.8-11.3-25.5-6l-95.1 59c-8.7 5.4-11.4 16.8-6 25.5s16.8 11.3 25.5 6l95.1-59z"/></g><path d="M251.1 322.2l-42.6 32.5c-.1-7.3 2.8-12.4 7.8-15.5l38.3-24.7c-1.2 1.8-1.6 6.4-3.5 7.7z" fill="#edac80"/><path d="M248.3 275.3c7.5-5.3 32.8-19.6 27.5-27l4.9-24.4c-5.3-7.4-57.8 28.9-62 31.9l-95.2 65c-10.7 7.6-12.4 18-7.1 25.5 5.3 7.4 15.7 9.2 23.1 3.9l108.8-74.9zm61.8 85.3c8.1-3.6 10.5-15.4 6.4-22.1-4.2-6.8-13.5-8.6-20.8-4.1l-101.2 61.2c-7.3 4.5-9.8 13.6-5.7 20.4 4.2 6.8 13.2 7.9 19.1 4.8l102.7-60.4" fill="#f1a977"/><path d="M287.9 339.5l-47.4 31.6c-5.6 3.3-45.3 25-41.1 22.4l102.7-63.9c-1.1 1.5-12.6 8.8-14.2 9.9z" fill="#edac80"/><path d="M266.8 309.6c9.8-4.8 12.3-19.4 6.8-27.6-5.4-8.2-17-10-25.8-4.1l-121.7 80c-8.8 5.9-11.5 17.2-6 25.4 5.4 8.1 16.6 9.1 23.7 5l123.6-79.2" fill="#f1a977"/><path d="M238.6 284.5l-56.9 41.2c-6.7 4.4-54.7 32.8-49.6 29.5l123.5-83.5c-1.3 1.9-15.1 11.4-17 12.8z" fill="#edac80"/><path d="M285.9 335.4c9.2-4.7 11.4-18.7 6.1-26.4-5.3-7.7-16.3-9.3-24.6-3.5l-114.8 78.1c-8.3 5.7-10.7 16.6-5.4 24.3 5.3 7.7 15.9 8.5 22.7 4.4l116.5-77.2" fill="#f1a977"/><path d="M258.6 312L205 352.1c-6.3 4.2-51.5 32.1-46.8 28.8l116.4-81.4c-1.2 1.8-14.2 11.1-16 12.5z" fill="#edac80"/><path d="M186 362c-8.7-5.4-32.1-29-26.7-37.7 5.4-8.7 16.8-11.3 25.5-6l67.1 41c8.7 5.4 13 13.7 7.6 22.4s-12.3 8.8-24 3.7L186 362z" fill="#fbbf96"/><path d="M213.3 339.9l48.7 34.7c.3-8.6-3.6-11.2-8.6-14.3l-53.4-35c1.2 1.8 11.3 13.3 13.3 14.6z" fill="#edac80"/><g fill="#fbbf96"><path d="M265 246.2l-16.7-14.1 3.6-28.1-88.8-30.4-84.5 90.1s22.7 35.7 45.5 56.8c22.8 21.1 63 42 63 42L265 246.2z"/><path d="M166.8 311.1c-8.7-5.4-11.3-16.8-6-25.5 5.4-8.7 16.8-11.3 25.5-6l95.1 59c8.7 5.4 11.4 16.8 6 25.5s-16.8 11.3-25.5 6l-95.1-59z"/></g><path d="M247.5 322.2l42.6 32.5c.1-7.3-2.8-12.4-7.8-15.5L244 314.5c1.3 1.8 1.6 6.4 3.5 7.7z" fill="#edac80"/><path d="M250.3 275.3c-7.4-5.3-32.8-19.6-27.5-27l-4.9-24.4c5.3-7.4 57.8 28.9 62 31.9l95.2 65c10.7 7.6 12.4 18 7.1 25.5-5.3 7.4-15.7 9.2-23.1 3.9l-108.8-74.9z" fill="#fbbf96"/><path d="M357.9 342.5l6.7 4.7c4.7 3.4 11.5 2 15.1-3.1s2.7-11.9-2-15.2l-6.6-4.7s-3.5 1.4-7.8 7.6c-5.3 7.6-4.8 8.3-5.4 10.7zM307.1 308c-.5-.4-.7-1.1-.3-1.7l12.1-17c.4-.5 1.1-.7 1.7-.3.5.4.7 1.1.3 1.7l-12.1 17c-.4.6-1.2.7-1.7.3zm-1.7-7.8c-.5-.3-.6-1-.2-1.5l6-8.4c.3-.5 1-.6 1.5-.3.5.4.6 1 .2 1.5l-6 8.4c-.3.5-1 .6-1.5.3z" fill="#fdd6b2"/><path d="M188.5 360.6c-8.1-3.6-10.5-15.4-6.4-22.1 4.2-6.8 13.5-8.6 20.8-4.1l101.2 61.2c7.3 4.5 9.8 13.6 5.7 20.4-4.2 6.8-13.2 7.9-19.1 4.8l-102.6-60.4" fill="#fbbf96"/><path d="M210.7 339.5l47.4 31.6c5.6 3.3 45.3 25 41.1 22.4l-102.7-63.9c1.1 1.5 12.6 8.8 14.2 9.9z" fill="#edac80"/><path d="M288 414.4l6.1 3.7c4.3 2.6 10.1 1 12.9-3.6s1.7-10.5-2.6-13.1l-6-3.7s-2.9 1.5-6.3 7c-4.3 7-3.8 7.5-4.1 9.7zm-43.9-24.8c-.5-.3-.6-.9-.3-1.4l9.7-15.3c.3-.5 1-.6 1.4-.3.5.3.6 1 .3 1.4l-9.7 15.3c-.3.4-.9.6-1.4.3zm-1.8-6.8c-.4-.3-.6-.8-.3-1.3l4.8-7.5c.3-.4.8-.6 1.3-.3.4.3.6.8.3 1.3l-4.8 7.6c-.3.4-.9.5-1.3.2z" fill="#fdd6b2"/><path d="M231.8 309.6c-9.8-4.8-12.3-19.4-6.8-27.6 5.4-8.2 17-10 25.8-4.1L372.6 358c8.8 5.9 11.5 17.2 6 25.4-5.4 8.1-16.6 9.1-23.7 5l-123.6-79.2" fill="#fbbf96"/><path d="M260.1 284.5l56.9 41.2c6.7 4.4 54.7 32.8 49.6 29.5l-123.5-83.5c1.2 1.9 15 11.4 17 12.8z" fill="#edac80"/><path d="M351.8 380.4l7.3 4.8c5.2 3.4 12.4 1.7 16.1-3.8s2.5-12.8-2.6-16.3l-7.3-4.8s-3.7 1.7-8.1 8.4c-5.5 8.3-4.9 9-5.4 11.7zm-52.9-32.7c-.6-.4-.7-1.2-.3-1.8l12.7-18.4c.4-.6 1.2-.7 1.8-.3.6.4.7 1.2.3 1.8l-12.7 18.4c-.4.6-1.2.8-1.8.3zm-1.9-8.3c-.5-.4-.6-1.1-.3-1.6l6.3-9.1c.4-.5 1.1-.6 1.6-.3.5.4.6 1.1.3 1.6l-6.3 9.1c-.4.5-1.1.6-1.6.3z" fill="#fdd6b2"/><path d="M212.7 335.4c-9.2-4.7-11.4-18.7-6.1-26.4 5.3-7.7 16.3-9.3 24.6-3.5L346 383.6c8.3 5.7 10.7 16.6 5.4 24.3-5.3 7.7-15.9 8.5-22.7 4.4l-116.5-77.2" fill="#fbbf96"/><path d="M240 312l53.5 40.1c6.4 4.2 51.6 32.1 46.8 28.8l-116.4-81.4c1.3 1.8 14.3 11.1 16.1 12.5z" fill="#edac80"/><path d="M325.9 404.7l6.9 4.7c4.9 3.4 11.7 1.8 15.4-3.4 3.6-5.2 2.6-12.2-2.3-15.5l-6.9-4.7s-3.5 1.5-7.8 7.8c-5.3 7.9-4.8 8.6-5.3 11.1zM276 372.8c-.6-.4-.7-1.2-.3-1.7l12.4-17.3c.4-.6 1.2-.7 1.7-.3.6.4.7 1.2.3 1.7l-12.4 17.3c-.4.6-1.1.7-1.7.3zm-1.7-8c-.5-.3-.6-1-.2-1.5l6.1-8.6c.3-.5 1-.6 1.5-.3.5.4.6 1 .3 1.5l-6.1 8.6c-.4.6-1.1.7-1.6.3z" fill="#fdd6b2"/><path d="M260.3 272.2c-4.1-1.3-6.6-5.2-5.6-9.4.6-2.6-3.4-3.9-4-1.2-1.5 6.5 1.9 12.7 8.3 14.6 2.6.8 3.9-3.2 1.3-4zm-19 34.9c-6.8-2.8-9.9-9.7-7.6-16.7.8-2.5-3.2-3.4-4.1-.8-2.9 8.7 1.4 17.8 9.8 21.2 2.5 1 4.4-2.7 1.9-3.7zm-22.9 23.6c-4.9-1.9-7.4-6.9-5.8-12 .8-2.5-3.1-4.1-3.9-1.5-2.3 7.2 1.1 14.6 8.2 17.4 2.5.9 4-3 1.5-3.9zM194.1 357c-3.6-1.5-5.6-5.2-4.3-9 .9-2.5-2.8-4.4-3.7-1.9-2 5.8.3 12.1 6.1 14.6 2.5 1 4.4-2.7 1.9-3.7z" fill="#f5b78c"/><path d="M101 291.5l-81.7-63.6c-7.6-5.9-6.4-20.1 2.6-31.7l56.7-72.8c9-11.6 22.5-16.2 30.1-10.3l81.7 63.6c7.5 6-81.8 120.7-89.4 114.8z" fill="#ebf3f6"/><path d="M189.9 221.8l29.9-20.5s3.8-4.6 18.6-5.7c23.3-1.7 69.6-12.4 69.6-12.4 28.5 8.5 26 33.8 26 33.8l-74.6 14.3s-34.4-2.7-42.9 2.7c-20.8 13-31.1-8.4-31.1-8.4l4.5-3.8z" fill="#f1a977"/><path d="M205.4 211.1l-19.9 12.8s4.5 4.2 8.3 3.7c4.2-.6 13.1-10.4 11.6-16.5z" fill="#fdd6b2"/><path d="M193 230.3l35.8-9.5 33.7-4.2-23.9-1.3s-9.8-.7-17.1 3.2c-5.8 3.1-28.5 11.8-28.5 11.8z" fill="#edac80"/><path d="M226.3 207c.6-.1 1-.8.9-1.4l-1.3-5.8c-.2-.6-.8-1-1.4-.9-.6.1-1 .8-.9 1.4l1.3 5.8c.1.7.8 1.1 1.4.9zm3.7-3.8c.6-.2 1-.8.9-1.4l-.6-3.1c-.1-.6-.8-1-1.4-.9-.6.2-1 .8-.9 1.4l.6 3.1c.1.6.8 1 1.4.9z" fill="#fdd6b2"/><path d="M405.2 291.5l81.7-63.6c7.6-5.9 6.4-20.1-2.6-31.7l-56.7-72.8c-9-11.6-22.5-16.2-30.1-10.3l-81.7 63.6c-7.5 6 81.8 120.7 89.4 114.8z" fill="#ebf3f6"/><path d="M182.3 164.3L73.1 72.4C34.2 111.1 8.2 162.6 1.7 220.1l82.9 69.7c8.3 6.4 106-119.1 97.7-125.5zm234.3 122.9l78-66c-6.2-57.6-32.1-109.3-70.9-148.2l-104.8 88.6c-8.2 6.5 89.5 132 97.7 125.6z" fill="#337180"/></svg>