<svg xmlns="http://www.w3.org/2000/svg" viewBox="0 0 512 512"><circle cx="256" cy="256" r="256" fill="#3bcbb2"/><path d="M262.048 203.932l14.2-25.771c2.104-3.682 2.235-16.699 2.235-16.699l-20.775-.92-17.75 21.169 4.733 28.401 9.467 15.91c4.602 8.809-5.522 21.3-12.754 11.965l-18.276-23.01s-8.152-33.003-6.311-42.075c1.841-9.072 32.214-60.877 32.214-60.877s49.438-26.428 69.161-35.369l31.162-48.912C365.658 31.82 381.568 38 396.82 46.152l-41.549 60.22s-17.882 43.784-28.401 55.881c-10.65 11.965-28.401 26.691-28.401 26.691s-14.726 23.404-22.089 28.006c-9.335 7.1-20.643-1.315-14.332-12.754v-.264z" fill="#ffd190"/><path d="M238.776 235.62c.394-.394 2.893-1.972 2.893-1.972l5.391 6.706s-.526 3.55-3.156 1.183-5.128-5.917-5.128-5.917zm71.527-167.774l67.189 38.13 10.124-17.75-67.189-38.13z" fill="#fff"/><path d="M311.881 48.781l81.257 46.151 23.273-38.525c-24.719-19.854-53.251-35.369-84.281-44.968l-20.249 37.342z" fill="#6b7f9e"/><path d="M393.27 71.265c3.024 1.446 4.208 4.865 2.893 7.889-1.446 2.893-4.865 4.076-7.889 2.63-3.024-1.446-4.207-4.865-2.893-7.889 1.446-2.893 4.864-4.077 7.889-2.63z" fill="#8597b1"/><g fill="#ff7069"><path d="M417.463 365.526c-.657 49.175-50.753 94.143-74.42 103.478-11.439 14.726.132 32.082-23.667 31.425l-7.1-22.221c-27.612 11.176-64.559 13.28-89.409 6.706l-8.284 15.647c-9.204.131-15.121 1.052-16.436-6.443l-2.235-13.148c-2.104-2.104-17.356-8.021-24.193-11.702-52.857-31.819-48.781-60.088-81.652-66.005-13.28-2.367-19.197-5.522-18.408-9.861l24.719-2.498-14.069-.394-22.221-.526c-7.1-12.622-6.837-32.74-5.391-40.366 1.578-7.626 14.332 12.491 57.064-39.84 64.296-108.08 296.76-94.143 305.438 45.757 1.315.92 3.682 1.972 6.18 2.761l.394.131a12.743 12.743 0 0 1-.394-3.024c0-2.104.657-3.945 1.709-5.522 1.972-2.893 5.128-4.602 9.072-3.813 6.048 1.315 10.124 8.678 6.048 13.806-1.183 1.446-3.024 2.761-5.785 3.419 2.367.92 5.654 1.315 9.73 1.183-.131 3.682-13.543 3.024-17.356-.92-1.446-.263-3.156-.657-4.733-1.183s-3.287-1.183-4.602-1.841c0 1.578.132 3.287 0 4.865v.129zm11.57-6.048h.789c10.387-.394 8.941-8.021 3.55-9.204-1.972-.394-3.55.394-4.47 1.841-.657.92-.92 2.104-1.052 3.287 0 1.183.263 2.498 1.052 3.682 0 .131.131.263.263.263l-.132.131z"/><path d="M97.167 253.633l24.588 53.12 54.435-23.536c-23.536-20.38-50.227-28.795-78.891-29.584h-.132z"/></g><path d="M97.167 253.633s14.989 7.889 25.245 24.851c10.256 16.961-.657 28.269-.657 28.269l-24.588-53.12zm32.477 68.372c9.861 0 17.882 7.1 17.882 15.778s-8.021 15.778-17.882 15.778-17.882-7.1-17.882-15.778 8.02-15.778 17.882-15.778z" fill="#f7635b"/><path d="M128.592 323.451c8.152 0 14.726 5.785 14.726 13.017 0 7.232-6.574 13.017-14.726 13.017s-14.726-5.785-14.726-13.017c-.001-7.231 6.574-13.017 14.726-13.017z" fill="#fff"/><path d="M128.986 325.161c3.682 0 6.574 2.893 6.574 6.443s-2.893 6.443-6.574 6.443-6.574-2.893-6.574-6.443 2.893-6.443 6.574-6.443z" fill="#596366"/><path d="M257.841 250.346c25.245 0 48.518 4.602 67.32 12.228l10.124 16.961c-41.418-17.75-113.997-16.436-152.522 0l7.889-16.961c18.671-7.626 41.943-12.228 67.32-12.228h-.131zM417.463 360.53c-45.362 106.897-219.184 125.173-299.258 59.562 10.913 12.491 22.221 30.11 53.646 49.044 6.706 3.682 21.958 9.73 24.193 11.702l2.235 13.148c1.315 7.363 7.232 6.574 16.436 6.443l8.284-15.647c24.851 6.574 61.798 4.47 89.409-6.706l7.1 22.221c23.667.657 12.228-16.699 23.667-31.425 23.667-9.467 73.631-54.435 74.42-103.478v-4.865h-.132zm-308.331 50.753s-.263-.132-.657-.526c.263.132.394.263.657.526z" fill="#f7635b"/><path d="M263.232 188.286c19.723 0 35.764 16.041 35.764 35.764s-16.041 35.764-35.764 35.764-35.764-16.041-35.764-35.764 16.041-35.764 35.764-35.764z" fill="#ffe356"/><path d="M263.232 198.015c14.332 0 26.034 11.571 26.034 26.034 0 14.332-11.571 26.034-26.034 26.034-14.332 0-26.034-11.571-26.034-26.034 0-14.332 11.57-26.034 26.034-26.034z" fill="#fcd34e"/><path d="M272.436 213.531s-2.104-2.893-6.311-3.55v-3.813h-4.47v4.076c-.263.131-.657.131-.92.263-7.889 2.367-6.18 8.415-6.048 9.335s1.709 3.419 5.259 5.259c3.55 1.709 7.626 3.156 8.021 4.865.263 1.709-1.183 4.207-4.339 3.813-3.156-.263-6.969-3.156-6.969-3.156l-3.024 3.682s2.498 3.156 8.021 3.813v3.813h4.47v-3.945c5.785-.92 6.574-5.259 6.574-5.259s1.578-4.865-2.367-7.758c-3.945-2.761-9.598-3.55-10.65-6.443-.92-2.761 2.104-5.259 4.996-4.339 2.761.92 4.996 2.893 4.996 2.893l2.63-3.682.131.133z" fill="#fff"/><path d="M262.048 203.932c6.311-11.439 12.097-22.221 14.2-25.771 2.104-3.682 2.235-16.699 2.235-16.699s25.771-17.619 34.843-9.467c8.941 8.152 8.021 10.519 8.941 14.989-10.387 10.782-23.667 21.695-23.667 21.695s-14.726 23.404-21.958 28.006c-9.335 7.1-20.643-1.315-14.332-12.754h-.262z" fill="#ffd190"/><path d="M266.65 217.081l7.363-11.965 7.1 4.602s-6.311 10.519-9.072 11.308c-2.893.788-5.785-2.236-5.391-3.945z" fill="#fff"/></svg>