<?xml version="1.0" encoding="iso-8859-1"?>
<!-- Generator: Adobe Illustrator 19.0.0, SVG Export Plug-In . SVG Version: 6.00 Build 0)  -->
<svg version="1.1" id="Layer_1" xmlns="http://www.w3.org/2000/svg" xmlns:xlink="http://www.w3.org/1999/xlink" x="0px" y="0px"
	 viewBox="0 0 511.999 511.999" style="enable-background:new 0 0 511.999 511.999;" xml:space="preserve">
<path style="fill:#4EBFED;" d="M0,151.462v282.767c0,16.276,13.194,29.47,29.47,29.47h453.059c16.276,0,29.47-13.194,29.47-29.47
	V77.769c0-16.276-13.194-29.47-29.47-29.47H29.47C13.194,48.298,0,61.493,0,77.769v41.654"/>
<rect x="41.667" y="100.167" style="fill:#CFDCE5;" width="428.662" height="92.268"/>
<path style="fill:#3BA4BC;" d="M476.74,198.844H35.259V93.759H476.74V198.844z M48.074,186.028h415.85v-79.453H48.074V186.028z"/>
<g>
	<rect x="41.667" y="240.487" style="fill:#CFDCE5;" width="57.572" height="39.728"/>
	<rect x="41.667" y="314.498" style="fill:#CFDCE5;" width="57.572" height="39.728"/>
	<rect x="41.667" y="388.509" style="fill:#CFDCE5;" width="57.572" height="39.728"/>
	<rect x="227.211" y="240.487" style="fill:#CFDCE5;" width="57.572" height="39.728"/>
	<rect x="227.211" y="314.498" style="fill:#CFDCE5;" width="57.572" height="39.728"/>
	<rect x="227.211" y="388.509" style="fill:#CFDCE5;" width="57.572" height="39.728"/>
	<rect x="412.757" y="240.487" style="fill:#CFDCE5;" width="57.572" height="39.728"/>
	<rect x="412.757" y="314.498" style="fill:#CFDCE5;" width="57.572" height="39.728"/>
	<rect x="412.757" y="388.509" style="fill:#CFDCE5;" width="57.572" height="39.728"/>
	<rect x="134.437" y="240.487" style="fill:#CFDCE5;" width="57.572" height="39.728"/>
	<rect x="134.437" y="314.498" style="fill:#CFDCE5;" width="57.572" height="39.728"/>
	<rect x="134.437" y="388.509" style="fill:#CFDCE5;" width="57.572" height="39.728"/>
	<rect x="319.984" y="240.487" style="fill:#CFDCE5;" width="57.572" height="39.728"/>
	<rect x="319.984" y="314.498" style="fill:#CFDCE5;" width="57.572" height="39.728"/>
	<rect x="319.984" y="388.509" style="fill:#CFDCE5;" width="57.572" height="39.728"/>
</g>
<g>
	<path style="fill:#3BA4BC;" d="M105.647,286.628H35.259v-52.543h70.388V286.628z M48.074,273.812h44.756V246.9H48.074V273.812z"/>
	<path style="fill:#3BA4BC;" d="M105.647,360.635H35.259v-52.543h70.388V360.635z M48.074,347.819h44.756v-26.912H48.074V347.819z"
		/>
	<path style="fill:#3BA4BC;" d="M105.647,434.642H35.259v-52.543h70.388V434.642z M48.074,421.826h44.756v-26.912H48.074V421.826z"
		/>
	<path style="fill:#3BA4BC;" d="M291.193,286.628h-70.387v-52.543h70.387V286.628z M233.622,273.812h44.755V246.9h-44.755V273.812z"
		/>
	<path style="fill:#3BA4BC;" d="M291.193,360.635h-70.387v-52.543h70.387V360.635z M233.622,347.819h44.755v-26.912h-44.755V347.819
		z"/>
	<path style="fill:#3BA4BC;" d="M291.193,434.642h-70.387v-52.543h70.387V434.642z M233.622,421.826h44.755v-26.912h-44.755V421.826
		z"/>
	<path style="fill:#3BA4BC;" d="M476.74,286.628h-70.387v-52.543h70.387V286.628z M419.169,273.812h44.755V246.9h-44.755V273.812z"
		/>
	<path style="fill:#3BA4BC;" d="M476.74,360.635h-70.387v-52.543h70.387V360.635z M419.169,347.819h44.755v-26.912h-44.755V347.819z
		"/>
	<path style="fill:#3BA4BC;" d="M476.74,434.642h-70.387v-52.543h70.387V434.642z M419.169,421.826h44.755v-26.912h-44.755V421.826z
		"/>
	<path style="fill:#3BA4BC;" d="M198.42,286.628h-70.387v-52.543h70.387V286.628z M140.849,273.812h44.755V246.9h-44.755V273.812z"
		/>
	<path style="fill:#3BA4BC;" d="M198.42,360.635h-70.387v-52.543h70.387V360.635z M140.849,347.819h44.755v-26.912h-44.755V347.819z
		"/>
	<path style="fill:#3BA4BC;" d="M198.42,434.642h-70.387v-52.543h70.387V434.642z M140.849,421.826h44.755v-26.912h-44.755V421.826z
		"/>
	<path style="fill:#3BA4BC;" d="M383.967,286.628H313.58v-52.543h70.387V286.628z M326.396,273.812h44.755V246.9h-44.755
		L326.396,273.812L326.396,273.812z"/>
	<path style="fill:#3BA4BC;" d="M383.967,360.635H313.58v-52.543h70.387V360.635z M326.396,347.819h44.755v-26.912h-44.755
		L326.396,347.819L326.396,347.819z"/>
	<path style="fill:#3BA4BC;" d="M383.967,434.642H313.58v-52.543h70.387V434.642z M326.396,421.826h44.755v-26.912h-44.755
		L326.396,421.826L326.396,421.826z"/>
</g>
<rect x="403.914" y="158.479" style="fill:#BAC6CC;" width="48.697" height="15.379"/>
<g>
</g>
<g>
</g>
<g>
</g>
<g>
</g>
<g>
</g>
<g>
</g>
<g>
</g>
<g>
</g>
<g>
</g>
<g>
</g>
<g>
</g>
<g>
</g>
<g>
</g>
<g>
</g>
<g>
</g>
</svg>
