<?xml version="1.0" encoding="iso-8859-1"?>
<!-- Generator: Adobe Illustrator 19.0.0, SVG Export Plug-In . SVG Version: 6.00 Build 0)  -->
<svg version="1.1" id="Layer_1" xmlns="http://www.w3.org/2000/svg" xmlns:xlink="http://www.w3.org/1999/xlink" x="0px" y="0px"
	 viewBox="0 0 512.02 512.02" style="enable-background:new 0 0 512.02 512.02;" xml:space="preserve">
<path style="fill:#CFDCE5;" d="M481.178,378.613c-3.512,0-6.877-1.989-8.469-5.377l-13.053-27.79
	c-2.195-4.674-0.186-10.243,4.488-12.439c4.67-2.195,10.242-0.187,12.439,4.488l13.053,27.79c2.195,4.674,0.186,10.243-4.488,12.439
	C483.863,378.327,482.509,378.613,481.178,378.613z"/>
<rect x="247.581" y="257.753" transform="matrix(0.9051 -0.4251 0.4251 0.9051 -98.2401 188.7098)" style="fill:#8DE0A8;" width="252.289" height="113.46"/>
<polygon style="fill:#4EBFED;" points="443.723,218.913 235.395,316.769 187.16,214.064 395.487,116.221 440.12,211.234 "/>
<rect x="153.542" y="63.296" transform="matrix(0.9051 -0.4251 0.4251 0.9051 -26.9375 119.3336)" style="fill:#FF6F52;" width="200.764" height="113.46"/>
<path style="fill:#CFDCE5;" d="M235.627,383.34c-3.512,0-6.878-1.989-8.469-5.377L61.124,24.487H9.35C4.187,24.487,0,20.3,0,15.136
	s4.187-9.35,9.35-9.35h57.713c3.624,0,6.922,2.094,8.464,5.376l168.557,358.85c2.195,4.674,0.186,10.243-4.488,12.439
	C238.311,383.053,236.958,383.34,235.627,383.34z"/>
<polygon style="fill:#3BA4BC;" points="443.723,218.913 235.395,316.769 196.56,229.062 440.12,211.234 "/>
<path style="fill:#CFDCE5;" d="M327.967,416.656c-3.512,0-6.878-1.989-8.469-5.377c-2.195-4.674-0.186-10.243,4.488-12.439
	l169.156-79.454c4.675-2.194,10.243-0.186,12.439,4.488c2.195,4.674,0.186,10.243-4.488,12.439l-169.156,79.454
	C330.651,416.371,329.299,416.656,327.967,416.656z"/>
<polygon style="fill:#E25749;" points="368.882,128.713 187.16,214.064 156.253,148.261 364.943,120.31 "/>
<circle style="fill:#415E72;" cx="265.129" cy="436.82" r="69.415"/>
<circle style="fill:#CFDCE5;" cx="265.129" cy="436.82" r="29.587"/>
<g>
</g>
<g>
</g>
<g>
</g>
<g>
</g>
<g>
</g>
<g>
</g>
<g>
</g>
<g>
</g>
<g>
</g>
<g>
</g>
<g>
</g>
<g>
</g>
<g>
</g>
<g>
</g>
<g>
</g>
</svg>
