<?xml version="1.0" encoding="iso-8859-1"?>
<!-- Generator: Adobe Illustrator 19.0.0, SVG Export Plug-In . SVG Version: 6.00 Build 0)  -->
<svg version="1.1" id="Layer_1" xmlns="http://www.w3.org/2000/svg" xmlns:xlink="http://www.w3.org/1999/xlink" x="0px" y="0px"
	 viewBox="0 0 512 512" style="enable-background:new 0 0 512 512;" xml:space="preserve">
<polygon style="fill:#4EBFED;" points="512,464.355 0,464.355 65.344,349.154 87.129,310.738 424.871,310.738 "/>
<path style="fill:#42B7DB;" d="M256,403.009c0,0-112.716,2.804-190.656-53.855l21.786-38.416h168.415L256,403.009z"/>
<path style="fill:#FF6F52;" d="M398.347,164.81c-31.256-156.22-253.432-156.22-284.688,0c-2.633,13.159-4.015,26.771-4.015,40.706
	c0,93.1,61.655,171.79,146.358,197.494c84.704-25.704,146.358-104.394,146.358-197.494
	C402.36,191.58,400.979,177.969,398.347,164.81z"/>
<circle style="fill:#CFDCE5;" cx="256.008" cy="188.07" r="76.992"/>
<path style="fill:#BAC6CC;" d="M203.216,188.071c0-38.402,28.117-70.233,64.887-76.038c-3.943-0.622-7.983-0.949-12.1-0.949
	c-42.519,0-76.987,34.468-76.987,76.987s34.468,76.987,76.987,76.987c4.117,0,8.158-0.326,12.1-0.949
	C231.333,258.304,203.216,226.473,203.216,188.071z"/>
<g>
</g>
<g>
</g>
<g>
</g>
<g>
</g>
<g>
</g>
<g>
</g>
<g>
</g>
<g>
</g>
<g>
</g>
<g>
</g>
<g>
</g>
<g>
</g>
<g>
</g>
<g>
</g>
<g>
</g>
</svg>
