<svg xmlns="http://www.w3.org/2000/svg" viewBox="0 0 512 512"><path d="M246.427 368.462l-8.332 29.902L206.409 512l-41.861-46.649-59.945 18.261 34.115-122.356 7.358-26.369 58.303 6.219zm160.977 115.15l-59.957-18.261L305.598 512 273.9 398.364l-8.332-29.89 42.049-27.368 58.314-6.219 7.358 26.369z" fill="#ff6f52"/><path d="M204.379 341.106l42.049 27.356-8.332 29.902c-11.513-7.417-22.145-19.258-33.716-23.013-17.908-5.821-44.055 4.19-58.96-6.666-2.711-1.983-4.894-4.506-6.701-7.429l7.358-26.37 58.302 6.22zm168.91 20.15c-1.807 2.922-3.99 5.445-6.701 7.429-14.916 10.855-41.063.845-58.971 6.666-11.571 3.755-22.204 15.597-33.716 23.013l-8.332-29.891 42.049-27.367 58.314-6.22 7.357 26.37z" fill="#e25749"/><path d="M422.986 188.116c0-19.154 17.581-40.861 11.97-58.144-5.816-17.912-32.993-25.097-43.844-40.005-10.959-15.059-9.468-43.087-24.527-54.047-14.909-10.851-41.052-.845-58.964-6.661C290.336 23.647 275.154 0 256 0s-34.336 23.647-51.618 29.259c-17.912 5.816-44.055-4.19-58.965 6.661-15.059 10.959-13.569 38.988-24.527 54.047-10.851 14.909-38.028 22.093-43.844 40.004-5.612 17.283 11.969 38.991 11.969 58.145s-17.581 40.861-11.97 58.144c5.816 17.912 32.993 25.097 43.844 40.005 10.959 15.059 9.469 43.087 24.527 54.047 14.909 10.851 41.052.845 58.964 6.661 17.283 5.612 32.465 29.259 51.619 29.259s34.336-23.647 51.618-29.259c17.912-5.816 44.055 4.19 58.965-6.661 15.059-10.959 13.569-38.988 24.527-54.047 10.851-14.909 38.028-22.093 43.844-40.004 5.614-17.283-11.967-38.992-11.967-58.145z" fill="#fcd577"/><circle cx="256" cy="188.11" r="118.482" fill="#dce8ef"/><path d="M213.2 133.375h85.593v17.603H213.2zm0 91.878h85.593v17.603H213.2zm-24.374-45.945h134.337v17.603H188.826z" fill="#415e72"/></svg>.005c10.959,15.059,9.469,43.087,24.527,54.047c14.909,10.851,41.052,0.845,58.964,6.661
	c17.283,5.612,32.465,29.259,51.619,29.259s34.336-23.647,51.618-29.259c17.912-5.816,44.055,4.19,58.965-6.661
	c15.059-10.959,13.569-38.988,24.527-54.047c10.851-14.909,38.028-22.093,43.844-40.004
	C440.567,228.978,422.986,207.269,422.986,188.116z"/>
<circle style="fill:#DCE8EF;" cx="256" cy="188.11" r="118.482"/>
<g>
	<rect x="213.2" y="133.375" style="fill:#415E72;" width="85.593" height="17.603"/>
	<rect x="213.2" y="225.253" style="fill:#415E72;" width="85.593" height="17.603"/>
	<rect x="188.826" y="179.308" style="fill:#415E72;" width="134.337" height="17.603"/>
</g>
<g>
</g>
<g>
</g>
<g>
</g>
<g>
</g>
<g>
</g>
<g>
</g>
<g>
</g>
<g>
</g>
<g>
</g>
<g>
</g>
<g>
</g>
<g>
</g>
<g>
</g>
<g>
</g>
<g>
</g>
</svg>
