<svg xmlns="http://www.w3.org/2000/svg" viewBox="0 0 512 512"><path d="M495.96 288.227V395.63h-49.846c-6.684 21.318-16.904 41.055-29.983 58.548V512h-84.794v-40.817l-1.705.64a200.91 200.91 0 0 1-70.386 12.728c-24.44 0-48.88-4.452-72.066-13.367V512h-84.794v-57.821a195.728 195.728 0 0 1-21.192-35.663l-9.718-25.932c-5.655-13.668-8.201-28.114-8.979-41.72-1.756-31.099 5.894-61.997 21.13-89.158 4.865-8.69 10.559-18.032 16.352-25.832 25.393-34.234 59.426-58.699 96.995-72.342 57.583-20.941 123.504-16.452 179.445 17.267 2.533 1.53 4.314 2.684 5.179 3.373 9.555-13.969 25.644-23.136 43.852-23.136h10.458v91.528a194.231 194.231 0 0 1 13.004 35.663h47.048z" fill="#f9a395"/><path d="M331.339 471.183l-1.705.64a200.91 200.91 0 0 1-70.386 12.728c-24.44 0-48.88-4.452-72.066-13.367V512h-84.794v-57.821a195.728 195.728 0 0 1-21.192-35.663l-9.718-25.932c-5.655-13.668-8.201-28.114-8.978-41.72-1.756-31.099 5.894-61.997 21.13-89.158 4.865-8.69 10.559-18.032 16.352-25.832 25.393-34.234 59.426-58.699 96.995-72.342 0 0-99.975 101.284-81.421 183.332 28.212 124.77 125.596 124.319 215.783 124.319z" fill="#e59188"/><path d="M214.71 199.16l-5.955-17.843a191.09 191.09 0 0 1 22.947-6.097c28.253-5.647 57.817-4.725 85.496 2.666l-4.853 18.173c-24.907-6.651-51.517-7.479-76.956-2.394a172.202 172.202 0 0 0-20.679 5.495z" fill="#344f5e"/><path d="M57.983 331.544c-11.174 0-20.807-2.913-27.877-8.434-9.333-7.287-14.066-18.486-14.066-33.284a9.405 9.405 0 0 1 18.81 0c0 8.832 2.235 14.87 6.832 18.46 7.938 6.195 22.252 4.458 26.64 3.361a9.402 9.402 0 0 1 11.405 6.843c1.26 5.04-1.803 10.146-6.843 11.405-.66.165-6.672 1.613-14.589 1.65l-.312-.001z" fill="#e59188"/><path d="M407.961 287.336a17.79 17.79 0 0 1-1.856 7.95 17.96 17.96 0 0 1-16.151 10.069c-9.944 0-18.007-8.063-18.007-18.02 0-9.568 7.461-17.393 16.891-17.97.376-.025.74-.038 1.116-.038 9.944.002 18.007 8.065 18.007 18.009z" fill="#344f5e"/><path d="M407.961 287.336a17.79 17.79 0 0 1-1.856 7.95c-.364.025-.74.038-1.104.038-9.944 0-18.007-8.063-18.007-18.02 0-2.847.665-5.543 1.843-7.938.376-.025.74-.038 1.116-.038 9.945.001 18.008 8.064 18.008 18.008z" fill="#415e72"/><path d="M319.701 61.194c0 33.807-27.399 61.194-61.194 61.194-12.176 0-23.525-3.549-33.055-9.681-16.929-10.885-28.139-29.882-28.139-51.514C197.312 27.399 224.712 0 258.507 0a61.005 61.005 0 0 1 35.4 11.261c15.612 11.097 25.794 29.33 25.794 49.933z" fill="#fcd577"/><path d="M293.907 61.194c0 19.557-15.85 35.4-35.4 35.4a35.225 35.225 0 0 1-19.122-5.6c-9.794-6.296-16.278-17.286-16.278-29.8 0-19.55 15.85-35.4 35.4-35.4a35.289 35.289 0 0 1 20.479 6.514c9.031 6.42 14.921 16.968 14.921 28.886z" fill="#eac36e"/><path d="M319.706 61.193c0 33.807-27.399 61.194-61.194 61.194-12.176 0-23.525-3.549-33.055-9.681l14.433-21.393 39.576-58.649 14.446-21.405c15.612 11.098 25.794 29.331 25.794 49.934z" fill="#fcecc8"/><path d="M293.912 61.193c0 19.562-15.85 35.4-35.4 35.4a35.252 35.252 0 0 1-18.622-5.279l39.576-58.649c8.765 6.445 14.446 16.828 14.446 28.528z" fill="#fcd577"/></svg>